<?xml version="1.0" encoding="UTF-8"?>
<svg width="590px" height="154px" viewBox="0 0 590 154" version="1.1" xmlns="http://www.w3.org/2000/svg" xmlns:xlink="http://www.w3.org/1999/xlink">
    <!-- Generator: Sketch 50.2 (55047) - http://www.bohemiancoding.com/sketch -->
    <title>Group 35</title>
    <desc>Created with Sketch.</desc>
    <defs></defs>
    <g id="Page-1" stroke="none" stroke-width="1" fill="none" fill-rule="evenodd">
        <g id="stratobooster-website-final2" transform="translate(-623.000000, -6161.000000)">
            <g id="Group-35" transform="translate(623.000000, 6161.690000)">
                <path d="M12.0996,11.0325 L10.2636,10.3555 C8.7766,9.8065 7.6046,8.6355 7.0566,7.1485 L6.3796,5.3125 C6.3536,5.2435 6.2876,5.1975 6.2146,5.1975 C6.1416,5.1975 6.0756,5.2435 6.0496,5.3125 L5.3716,7.1485 C4.8246,8.6355 3.6526,9.8065 2.1656,10.3555 L0.3296,11.0325 C0.2606,11.0575 0.2146,11.1245 0.2146,11.1975 C0.2146,11.2705 0.2606,11.3375 0.3296,11.3615 L2.1656,12.0395 C3.6526,12.5885 4.8246,13.7595 5.3716,15.2465 L6.0496,17.0825 C6.0756,17.1515 6.1416,17.1975 6.2146,17.1975 C6.2876,17.1975 6.3536,17.1515 6.3796,17.0825 L7.0566,15.2465 C7.6046,13.7595 8.7766,12.5885 10.2636,12.0395 L12.0996,11.3615 C12.1686,11.3375 12.2146,11.2705 12.2146,11.1975 C12.2146,11.1245 12.1686,11.0575 12.0996,11.0325" id="Fill-7" fill="#FFFFFF"></path>
                <path d="M39.5,149.8675 C34.538,149.8675 30.5,145.8305 30.5,140.8675 C30.5,135.9045 34.538,131.8675 39.5,131.8675 C44.462,131.8675 48.5,135.9045 48.5,140.8675 C48.5,145.8305 44.462,149.8675 39.5,149.8675" id="Fill-9" fill="#6775EE"></path>
                <path d="M39.5,129.3675 C33.159,129.3675 28,134.5265 28,140.8675 C28,147.2095 33.159,152.3675 39.5,152.3675 C45.841,152.3675 51,147.2095 51,140.8675 C51,134.5265 45.841,129.3675 39.5,129.3675 M39.5,134.3675 C43.09,134.3675 46,137.2775 46,140.8675 C46,144.4575 43.09,147.3675 39.5,147.3675 C35.91,147.3675 33,144.4575 33,140.8675 C33,137.2775 35.91,134.3675 39.5,134.3675" id="Fill-11" fill="#5C5996"></path>
                <path d="M214.2246,96.4104 L213.0966,99.4704 C212.1826,101.9474 210.2296,103.9004 207.7516,104.8144 L204.6916,105.9434 C204.5756,105.9854 204.4996,106.0964 204.4996,106.2184 C204.4996,106.3414 204.5756,106.4504 204.6916,106.4924 L207.7516,107.6224 C210.2296,108.5354 212.1826,110.4884 213.0966,112.9664 L214.2246,116.0274 C214.2676,116.1414 214.3776,116.2194 214.4996,116.2194 C214.6216,116.2194 214.7326,116.1414 214.7746,116.0274 L215.9036,112.9664 C216.8176,110.4884 218.7696,108.5354 221.2476,107.6224 L224.3086,106.4934 C224.4236,106.4504 224.4996,106.3414 224.4996,106.2184 C224.4996,106.0964 224.4236,105.9854 224.3086,105.9434 L221.2476,104.8144 C218.7696,103.9004 216.8176,101.9474 215.9036,99.4714 L214.7746,96.4104 C214.7326,96.2944 214.6216,96.2184 214.4996,96.2184 C214.3776,96.2184 214.2676,96.2944 214.2246,96.4104" id="Fill-13" fill="#FFFFFF"></path>
                <path d="M241.5,87.9485 C238.191,87.9485 235.5,85.2575 235.5,81.9485 C235.5,78.6395 238.191,75.9485 241.5,75.9485 C244.809,75.9485 247.5,78.6395 247.5,81.9485 C247.5,85.2575 244.809,87.9485 241.5,87.9485" id="Fill-15" fill="#6775EE"></path>
                <path d="M241.5,73.4475 C236.813,73.4475 233,77.2605 233,81.9475 C233,86.6355 236.813,90.4475 241.5,90.4475 C246.187,90.4475 250,86.6355 250,81.9475 C250,77.2605 246.187,73.4475 241.5,73.4475 M241.5,78.4475 C243.433,78.4475 245,80.0145 245,81.9475 C245,83.8815 243.433,85.4475 241.5,85.4475 C239.567,85.4475 238,83.8815 238,81.9475 C238,80.0145 239.567,78.4475 241.5,78.4475" id="Fill-17" fill="#5C5996"></path>
                <path d="M566.4443,0.5511 C559.4123,8.1271 552.8723,16.3701 548.8453,25.8911 C544.6833,35.7331 543.3723,46.7601 545.1103,57.3031 C545.7263,61.0401 546.8513,64.2421 550.0793,66.5081 C554.0623,69.3031 559.5003,70.7421 564.2173,71.6991 C569.0953,72.6881 574.3233,72.8151 578.9033,70.6081 C586.3543,67.0161 590.0183,58.1001 589.8213,49.8311 C589.6253,41.5621 586.3073,33.7281 583.0443,26.1271 C579.0033,16.7161 574.7443,6.9941 567.1423,0.1291" id="Fill-19" fill="#8D9EFF"></path>
                <path d="M567.0957,42.2483 L567.0957,94.2653" id="Stroke-21" stroke="#6559D8" stroke-width="3" stroke-linecap="round"></path>
                <path d="M559.6123,58.6468 L567.0303,66.0648" id="Stroke-23" stroke="#6559D8" stroke-width="3" stroke-linecap="round"></path>
                <path d="M574.5137,52.5276 L567.0957,59.9456" id="Stroke-25" stroke="#6559D8" stroke-width="3" stroke-linecap="round"></path>
                <path d="M455.7041,55.4768 C451.9461,55.4358 448.1991,54.6388 444.7501,53.1468 C441.6101,51.7888 438.5431,49.6438 437.3781,46.4278 C436.2121,43.2108 437.8191,38.8958 441.1741,38.2278 C441.7991,38.1038 442.4591,38.1028 443.0361,37.8338 C444.9501,36.9458 444.5331,33.9798 443.1521,32.3838 C441.7711,30.7878 439.7471,29.6868 438.8941,27.7548 C437.9551,25.6258 438.8661,22.9258 440.7711,21.5888 C442.6771,20.2518 445.3461,20.2408 447.4031,21.3298 C447.6201,19.1438 447.8381,16.9588 448.0561,14.7738 C448.2861,12.4548 448.5321,10.0788 449.5571,7.9848 C450.5811,5.8898 452.5621,4.1038 454.8911,3.9908 C457.9581,3.8408 460.5031,6.6328 461.2981,9.5998 C462.0931,12.5658 461.6131,15.6998 461.4231,18.7648 C461.3781,19.4978 461.3561,20.2668 461.6731,20.9298 C462.5401,22.7438 465.1411,22.6218 467.0841,22.1058 C469.0271,21.5898 471.4741,21.1108 472.7321,22.6778 C473.7571,23.9528 473.2721,25.9218 472.2151,27.1688 C471.1571,28.4158 469.6601,29.1918 468.3751,30.2028 C466.8081,31.4358 465.5581,33.0578 464.7251,34.8678 C464.3061,35.7818 463.9901,36.7458 463.7951,37.7318 C463.6741,38.3388 463.6141,38.9528 463.5521,39.5668 C463.5421,39.6708 463.5311,39.7788 463.5571,39.8798 C463.6091,40.0888 463.8081,40.2358 464.0171,40.2888 C464.5511,40.4268 465.2121,40.2248 465.7031,40.0188 C466.5601,39.6588 467.3421,39.1118 468.2441,38.8608 C470.2761,38.2948 472.4131,40.0518 472.8641,42.1128 C473.3151,44.1718 472.4761,46.3138 471.3001,48.0638 C467.7621,53.3278 457.8641,56.5078 451.6711,55.1418" id="Fill-27" fill="#5AD4FF"></path>
                <path d="M452.9531,31.5022 L452.9531,69.0712" id="Stroke-29" stroke="#8D9EFF" stroke-width="3" stroke-linecap="round"></path>
                <path d="M446.6055,44.0511 L452.8965,50.3431" id="Stroke-31" stroke="#8D9EFF" stroke-width="3" stroke-linecap="round"></path>
                <path d="M459.2441,38.8616 L452.9531,45.1536" id="Stroke-33" stroke="#8D9EFF" stroke-width="3" stroke-linecap="round"></path>
            </g>
        </g>
    </g>
</svg>