<?xml version="1.0" encoding="UTF-8"?>
<svg width="285px" height="79px" viewBox="0 0 285 79" version="1.1" xmlns="http://www.w3.org/2000/svg" xmlns:xlink="http://www.w3.org/1999/xlink">
    <!-- Generator: Sketch 50.2 (55047) - http://www.bohemiancoding.com/sketch -->
    <title>Group</title>
    <desc>Created with Sketch.</desc>
    <defs></defs>
    <g id="Page-1" stroke="none" stroke-width="1" fill="none" fill-rule="evenodd">
        <g id="Group">
            <path d="M101.5265,36.5948 C101.4625,36.2768 101.3505,35.9308 101.1915,35.5598 C101.0325,35.1888 100.7935,34.8428 100.4745,34.5238 C100.1555,34.2058 99.7475,33.9408 99.2485,33.7278 C98.7485,33.5158 98.1385,33.4098 97.4165,33.4098 C96.8855,33.4098 96.4025,33.4898 95.9665,33.6488 C95.5315,33.8078 95.1605,34.0198 94.8525,34.2848 C94.5445,34.5508 94.3055,34.8538 94.1355,35.1928 C93.9645,35.5328 93.8805,35.8938 93.8805,36.2768 C93.8805,36.8918 94.0825,37.4278 94.4865,37.8848 C94.8895,38.3428 95.5055,38.6558 96.3335,38.8238 L99.4875,39.4298 C100.5065,39.6208 101.4095,39.9288 102.1945,40.3528 C102.9805,40.7788 103.6385,41.2828 104.1705,41.8668 C104.7015,42.4508 105.1035,43.1048 105.3805,43.8258 C105.6565,44.5488 105.7945,45.3028 105.7945,46.0878 C105.7945,46.9578 105.6145,47.8128 105.2535,48.6518 C104.8915,49.4908 104.3665,50.2338 103.6765,50.8818 C102.9855,51.5298 102.1355,52.0548 101.1275,52.4578 C100.1195,52.8618 98.9565,53.0638 97.6395,53.0638 C96.1315,53.0638 94.8365,52.8458 93.7535,52.4108 C92.6705,51.9758 91.7615,51.4188 91.0295,50.7378 C90.2975,50.0588 89.7395,49.2998 89.3575,48.4608 C88.9755,47.6218 88.7405,46.7988 88.6565,45.9918 L92.7335,44.9088 C92.7755,45.4618 92.9095,45.9918 93.1325,46.5018 C93.3555,47.0118 93.6685,47.4628 94.0715,47.8558 C94.4755,48.2488 94.9745,48.5618 95.5685,48.7958 C96.1625,49.0288 96.8635,49.1458 97.6715,49.1458 C98.8595,49.1458 99.7685,48.8868 100.3955,48.3658 C101.0215,47.8448 101.3345,47.1818 101.3345,46.3748 C101.3345,45.7158 101.1005,45.1478 100.6345,44.6698 C100.1665,44.1928 99.4875,43.8688 98.5945,43.6988 L95.4425,43.0618 C93.6355,42.6998 92.1975,41.9628 91.1255,40.8468 C90.0525,39.7318 89.5165,38.3148 89.5165,36.5948 C89.5165,35.5958 89.7235,34.6678 90.1375,33.8078 C90.5525,32.9478 91.1195,32.1988 91.8425,31.5618 C92.5635,30.9248 93.4035,30.4268 94.3585,30.0648 C95.3135,29.7028 96.3215,29.5228 97.3855,29.5228 C98.7425,29.5228 99.9065,29.7088 100.8735,30.0798 C101.8385,30.4528 102.6405,30.9248 103.2775,31.4988 C103.9155,32.0718 104.4085,32.7028 104.7595,33.3928 C105.1095,34.0838 105.3485,34.7478 105.4765,35.3848 L101.5265,36.5948 Z" id="Fill-194" fill="#FFFFFF"></path>
            <path d="M113.9493,36.9132 L117.1023,36.9132 L117.1023,40.6722 L113.9493,40.6722 L113.9493,47.2342 C113.9493,47.9142 114.1033,48.3862 114.4103,48.6522 C114.7183,48.9172 115.1793,49.0502 115.7953,49.0502 C116.0513,49.0502 116.3063,49.0392 116.5603,49.0172 C116.8153,48.9972 116.9963,48.9662 117.1023,48.9232 L117.1023,52.4272 C116.9113,52.5122 116.6193,52.5962 116.2253,52.6812 C115.8333,52.7662 115.3293,52.8092 114.7133,52.8092 C113.1843,52.8092 111.9733,52.3842 111.0823,51.5352 C110.1903,50.6852 109.7443,49.4962 109.7443,47.9662 L109.7443,40.6722 L106.9083,40.6722 L106.9083,36.9132 L107.7053,36.9132 C108.5323,36.9132 109.1443,36.6742 109.5363,36.1972 C109.9293,35.7192 110.1263,35.1302 110.1263,34.4292 L110.1263,32.2302 L113.9493,32.2302 L113.9493,36.9132 Z" id="Fill-196" fill="#FFFFFF"></path>
            <path d="M129.3976,41.1183 C128.9726,41.0343 128.5486,40.9913 128.1236,40.9913 C127.5706,40.9913 127.0516,41.0653 126.5636,41.2133 C126.0746,41.3623 125.6496,41.6073 125.2886,41.9463 C124.9266,42.2863 124.6346,42.7383 124.4126,43.3003 C124.1896,43.8633 124.0776,44.5693 124.0776,45.4183 L124.0776,52.5863 L119.8416,52.5863 L119.8416,36.9133 L123.9496,36.9133 L123.9496,39.2393 C124.1846,38.7293 124.4856,38.3103 124.8586,37.9813 C125.2296,37.6513 125.6226,37.4023 126.0366,37.2313 C126.4516,37.0623 126.8646,36.9453 127.2796,36.8813 C127.6936,36.8183 128.0706,36.7853 128.4106,36.7853 C128.5796,36.7853 128.7446,36.7913 128.9036,36.8013 C129.0626,36.8123 129.2276,36.8293 129.3976,36.8503 L129.3976,41.1183 Z" id="Fill-198" fill="#FFFFFF"></path>
            <path d="M137.17,49.878 C137.615,49.878 138.045,49.82 138.461,49.703 C138.874,49.587 139.24,49.385 139.559,49.097 C139.877,48.811 140.132,48.44 140.324,47.983 C140.515,47.526 140.611,46.947 140.611,46.247 L140.611,45.545 L137.075,46.087 C136.522,46.172 136.06,46.369 135.689,46.676 C135.317,46.985 135.131,47.447 135.131,48.063 C135.131,48.53 135.3,48.949 135.641,49.321 C135.981,49.692 136.49,49.878 137.17,49.878 M130.894,48.317 C130.894,47.616 131.017,46.996 131.261,46.454 C131.505,45.913 131.839,45.441 132.265,45.036 C132.69,44.633 133.183,44.315 133.745,44.081 C134.308,43.848 134.918,43.677 135.577,43.571 L139.432,42.998 C139.877,42.934 140.186,42.802 140.356,42.6 C140.525,42.398 140.611,42.158 140.611,41.883 C140.611,41.331 140.392,40.853 139.958,40.449 C139.522,40.046 138.858,39.844 137.967,39.844 C137.032,39.844 136.315,40.099 135.816,40.608 C135.317,41.118 135.035,41.713 134.972,42.393 L131.212,41.596 C131.276,40.98 131.468,40.364 131.787,39.749 C132.106,39.133 132.54,38.581 133.093,38.091 C133.645,37.604 134.323,37.206 135.131,36.898 C135.938,36.59 136.873,36.436 137.935,36.436 C139.165,36.436 140.217,36.6 141.088,36.93 C141.959,37.259 142.665,37.693 143.207,38.235 C143.747,38.777 144.141,39.409 144.385,40.131 C144.629,40.853 144.752,41.607 144.752,42.393 L144.752,50.101 C144.752,50.526 144.772,50.978 144.815,51.455 C144.858,51.933 144.9,52.31 144.942,52.586 L141.057,52.586 C141.013,52.374 140.977,52.082 140.945,51.71 C140.913,51.338 140.897,51.004 140.897,50.707 C140.494,51.323 139.915,51.864 139.161,52.331 C138.407,52.797 137.445,53.032 136.278,53.032 C135.45,53.032 134.701,52.899 134.032,52.634 C133.363,52.368 132.795,52.018 132.328,51.583 C131.86,51.148 131.505,50.649 131.261,50.086 C131.017,49.523 130.894,48.934 130.894,48.317" id="Fill-200" fill="#FFFFFF"></path>
            <path d="M153.5118,36.9132 L156.6648,36.9132 L156.6648,40.6722 L153.5118,40.6722 L153.5118,47.2342 C153.5118,47.9142 153.6658,48.3862 153.9728,48.6522 C154.2818,48.9172 154.7428,49.0502 155.3588,49.0502 C155.6148,49.0502 155.8688,49.0392 156.1228,49.0172 C156.3778,48.9972 156.5588,48.9662 156.6648,48.9232 L156.6648,52.4272 C156.4738,52.5122 156.1818,52.5962 155.7888,52.6812 C155.3968,52.7662 154.8908,52.8092 154.2768,52.8092 C152.7468,52.8092 151.5358,52.3842 150.6438,51.5352 C149.7528,50.6852 149.3068,49.4962 149.3068,47.9662 L149.3068,40.6722 L146.4718,40.6722 L146.4718,36.9132 L147.2678,36.9132 C148.0958,36.9132 148.7058,36.6742 149.0998,36.1972 C149.4918,35.7192 149.6888,35.1302 149.6888,34.4292 L149.6888,32.2302 L153.5118,32.2302 L153.5118,36.9132 Z" id="Fill-202" fill="#FFFFFF"></path>
            <path d="M166.5074,49.2091 C167.0184,49.2091 167.5154,49.1141 168.0044,48.9231 C168.4934,48.7311 168.9174,48.4511 169.2794,48.0781 C169.6404,47.7071 169.9324,47.2461 170.1544,46.6931 C170.3784,46.1401 170.4894,45.4931 170.4894,44.7501 C170.4894,44.0071 170.3784,43.3591 170.1544,42.8061 C169.9324,42.2541 169.6404,41.7921 169.2794,41.4211 C168.9174,41.0491 168.4934,40.7681 168.0044,40.5771 C167.5154,40.3851 167.0184,40.2901 166.5074,40.2901 C165.9984,40.2901 165.4994,40.3851 165.0104,40.5771 C164.5224,40.7681 164.0974,41.0491 163.7364,41.4211 C163.3744,41.7921 163.0844,42.2541 162.8604,42.8061 C162.6374,43.3591 162.5264,44.0071 162.5264,44.7501 C162.5264,45.4931 162.6374,46.1401 162.8604,46.6931 C163.0844,47.2461 163.3744,47.7071 163.7364,48.0781 C164.0974,48.4511 164.5224,48.7311 165.0104,48.9231 C165.4994,49.1141 165.9984,49.2091 166.5074,49.2091 M166.5074,36.4361 C167.6744,36.4361 168.7634,36.6421 169.7734,37.0571 C170.7814,37.4711 171.6524,38.0441 172.3854,38.7771 C173.1174,39.5101 173.6914,40.3851 174.1054,41.4041 C174.5184,42.4241 174.7264,43.5391 174.7264,44.7501 C174.7264,45.9601 174.5184,47.0701 174.1054,48.0781 C173.6914,49.0871 173.1174,49.9631 172.3854,50.7071 C171.6524,51.4501 170.7814,52.0281 169.7734,52.4421 C168.7634,52.8571 167.6744,53.0631 166.5074,53.0631 C165.3404,53.0631 164.2514,52.8571 163.2434,52.4421 C162.2344,52.0281 161.3634,51.4501 160.6304,50.7071 C159.8984,49.9631 159.3254,49.0871 158.9094,48.0781 C158.4964,47.0701 158.2894,45.9601 158.2894,44.7501 C158.2894,43.5391 158.4964,42.4241 158.9094,41.4041 C159.3254,40.3851 159.8984,39.5101 160.6304,38.7771 C161.3634,38.0441 162.2344,37.4711 163.2434,37.0571 C164.2514,36.6421 165.3404,36.4361 166.5074,36.4361" id="Fill-204" fill="#FFFFFF"></path>
            <path d="M185.652,48.923 C186.735,48.923 187.574,48.663 188.169,48.142 C188.763,47.622 189.061,46.905 189.061,45.992 C189.061,45.1 188.779,44.373 188.216,43.81 C187.654,43.247 186.819,42.965 185.716,42.965 L182.085,42.965 L182.085,48.923 L185.652,48.923 Z M185.206,39.334 C186.226,39.334 187.017,39.08 187.58,38.57 C188.142,38.061 188.424,37.371 188.424,36.5 C188.424,35.629 188.153,34.944 187.612,34.444 C187.07,33.946 186.257,33.696 185.174,33.696 L182.085,33.696 L182.085,39.334 L185.206,39.334 Z M185.875,30.001 C186.98,30.001 187.956,30.155 188.806,30.463 C189.656,30.771 190.371,31.195 190.957,31.737 C191.541,32.279 191.986,32.921 192.295,33.664 C192.602,34.408 192.756,35.215 192.756,36.085 C192.756,37.254 192.448,38.273 191.833,39.143 C191.216,40.014 190.431,40.609 189.475,40.927 C190.027,41.054 190.542,41.277 191.02,41.596 C191.498,41.914 191.917,42.302 192.278,42.759 C192.638,43.215 192.926,43.741 193.138,44.335 C193.35,44.93 193.457,45.578 193.457,46.278 C193.457,47.192 193.292,48.036 192.963,48.811 C192.633,49.587 192.166,50.25 191.562,50.802 C190.957,51.355 190.223,51.789 189.363,52.109 C188.503,52.427 187.542,52.586 186.481,52.586 L177.752,52.586 L177.752,30.001 L185.875,30.001 Z" id="Fill-206" fill="#FFFFFF"></path>
            <path d="M203.4264,49.2091 C203.9364,49.2091 204.4344,49.1141 204.9234,48.9231 C205.4124,48.7311 205.8364,48.4511 206.1974,48.0781 C206.5584,47.7071 206.8514,47.2461 207.0734,46.6931 C207.2974,46.1401 207.4084,45.4931 207.4084,44.7501 C207.4084,44.0071 207.2974,43.3591 207.0734,42.8061 C206.8514,42.2541 206.5584,41.7921 206.1974,41.4211 C205.8364,41.0491 205.4124,40.7681 204.9234,40.5771 C204.4344,40.3851 203.9364,40.2901 203.4264,40.2901 C202.9174,40.2901 202.4174,40.3851 201.9284,40.5771 C201.4404,40.7681 201.0154,41.0491 200.6554,41.4211 C200.2944,41.7921 200.0024,42.2541 199.7794,42.8061 C199.5554,43.3591 199.4454,44.0071 199.4454,44.7501 C199.4454,45.4931 199.5554,46.1401 199.7794,46.6931 C200.0024,47.2461 200.2944,47.7071 200.6554,48.0781 C201.0154,48.4511 201.4404,48.7311 201.9284,48.9231 C202.4174,49.1141 202.9174,49.2091 203.4264,49.2091 M203.4264,36.4361 C204.5934,36.4361 205.6814,36.6421 206.6924,37.0571 C207.7004,37.4711 208.5714,38.0441 209.3034,38.7771 C210.0364,39.5101 210.6104,40.3851 211.0234,41.4041 C211.4384,42.4241 211.6454,43.5391 211.6454,44.7501 C211.6454,45.9601 211.4384,47.0701 211.0234,48.0781 C210.6104,49.0871 210.0364,49.9631 209.3034,50.7071 C208.5714,51.4501 207.7004,52.0281 206.6924,52.4421 C205.6814,52.8571 204.5934,53.0631 203.4264,53.0631 C202.2584,53.0631 201.1694,52.8571 200.1614,52.4421 C199.1534,52.0281 198.2814,51.4501 197.5494,50.7071 C196.8164,49.9631 196.2434,49.0871 195.8284,48.0781 C195.4144,47.0701 195.2074,45.9601 195.2074,44.7501 C195.2074,43.5391 195.4144,42.4241 195.8284,41.4041 C196.2434,40.3851 196.8164,39.5101 197.5494,38.7771 C198.2814,38.0441 199.1534,37.4711 200.1614,37.0571 C201.1694,36.6421 202.2584,36.4361 203.4264,36.4361" id="Fill-208" fill="#FFFFFF"></path>
            <path d="M221.3932,49.2091 C221.9022,49.2091 222.4012,49.1141 222.8902,48.9231 C223.3792,48.7311 223.8032,48.4511 224.1642,48.0781 C224.5242,47.7071 224.8172,47.2461 225.0402,46.6931 C225.2642,46.1401 225.3752,45.4931 225.3752,44.7501 C225.3752,44.0071 225.2642,43.3591 225.0402,42.8061 C224.8172,42.2541 224.5242,41.7921 224.1642,41.4211 C223.8032,41.0491 223.3792,40.7681 222.8902,40.5771 C222.4012,40.3851 221.9022,40.2901 221.3932,40.2901 C220.8832,40.2901 220.3832,40.3851 219.8952,40.5771 C219.4062,40.7681 218.9812,41.0491 218.6212,41.4211 C218.2612,41.7921 217.9682,42.2541 217.7462,42.8061 C217.5222,43.3591 217.4122,44.0071 217.4122,44.7501 C217.4122,45.4931 217.5222,46.1401 217.7462,46.6931 C217.9682,47.2461 218.2612,47.7071 218.6212,48.0781 C218.9812,48.4511 219.4062,48.7311 219.8952,48.9231 C220.3832,49.1141 220.8832,49.2091 221.3932,49.2091 M221.3932,36.4361 C222.5602,36.4361 223.6482,36.6421 224.6582,37.0571 C225.6662,37.4711 226.5372,38.0441 227.2702,38.7771 C228.0032,39.5101 228.5762,40.3851 228.9902,41.4041 C229.4052,42.4241 229.6112,43.5391 229.6112,44.7501 C229.6112,45.9601 229.4052,47.0701 228.9902,48.0781 C228.5762,49.0871 228.0032,49.9631 227.2702,50.7071 C226.5372,51.4501 225.6662,52.0281 224.6582,52.4421 C223.6482,52.8571 222.5602,53.0631 221.3932,53.0631 C220.2242,53.0631 219.1362,52.8571 218.1272,52.4421 C217.1192,52.0281 216.2472,51.4501 215.5162,50.7071 C214.7832,49.9631 214.2092,49.0871 213.7952,48.0781 C213.3812,47.0701 213.1732,45.9601 213.1732,44.7501 C213.1732,43.5391 213.3812,42.4241 213.7952,41.4041 C214.2092,40.3851 214.7832,39.5101 215.5162,38.7771 C216.2472,38.0441 217.1192,37.4711 218.1272,37.0571 C219.1362,36.6421 220.2242,36.4361 221.3932,36.4361" id="Fill-210" fill="#FFFFFF"></path>
            <path d="M234.6124,47.4259 C234.6544,48.0419 234.9084,48.5929 235.3774,49.0819 C235.8434,49.5709 236.5454,49.8149 237.4794,49.8149 C238.1794,49.8149 238.7004,49.6609 239.0404,49.3529 C239.3794,49.0459 239.5494,48.6779 239.5494,48.2539 C239.5494,47.8929 239.4224,47.5799 239.1674,47.3139 C238.9124,47.0489 238.4774,46.8519 237.8614,46.7249 L235.7914,46.2469 C234.2614,45.9069 233.1464,45.3179 232.4454,44.4789 C231.7454,43.6399 231.3954,42.6689 231.3954,41.5639 C231.3954,40.8629 231.5444,40.1999 231.8404,39.5729 C232.1384,38.9469 232.5464,38.4049 233.0674,37.9489 C233.5884,37.4919 234.2024,37.1259 234.9144,36.8499 C235.6264,36.5739 236.4064,36.4359 237.2574,36.4359 C238.3604,36.4359 239.2954,36.5899 240.0594,36.8979 C240.8244,37.2059 241.4454,37.5929 241.9234,38.0609 C242.4004,38.5269 242.7554,39.0209 242.9894,39.5419 C243.2244,40.0629 243.3614,40.5339 243.4044,40.9589 L239.8674,41.7549 C239.8254,41.5219 239.7564,41.2829 239.6614,41.0389 C239.5664,40.7949 239.4114,40.5669 239.1994,40.3529 C238.9874,40.1419 238.7264,39.9719 238.4184,39.8439 C238.1114,39.7169 237.7344,39.6529 237.2874,39.6529 C236.7354,39.6529 236.2634,39.8019 235.8704,40.0989 C235.4774,40.3959 235.2814,40.7679 235.2814,41.2139 C235.2814,41.5959 235.4144,41.9049 235.6794,42.1369 C235.9454,42.3719 236.2894,42.5309 236.7154,42.6149 L238.9444,43.0929 C240.4934,43.4119 241.6574,44.0069 242.4324,44.8769 C243.2074,45.7479 243.5954,46.7559 243.5954,47.9039 C243.5954,48.5399 243.4724,49.1669 243.2294,49.7829 C242.9844,50.3989 242.6074,50.9509 242.0984,51.4389 C241.5884,51.9279 240.9514,52.3209 240.1864,52.6179 C239.4224,52.9149 238.5304,53.0639 237.5114,53.0639 C236.3214,53.0639 235.3234,52.8939 234.5164,52.5539 C233.7094,52.2149 233.0514,51.8009 232.5414,51.3119 C232.0324,50.8229 231.6544,50.2979 231.4104,49.7349 C231.1674,49.1729 231.0234,48.6679 230.9804,48.2219 L234.6124,47.4259 Z" id="Fill-212" fill="#FFFFFF"></path>
            <path d="M251.5914,36.9132 L254.7454,36.9132 L254.7454,40.6722 L251.5914,40.6722 L251.5914,47.2342 C251.5914,47.9142 251.7444,48.3862 252.0534,48.6522 C252.3604,48.9172 252.8214,49.0502 253.4384,49.0502 C253.6934,49.0502 253.9484,49.0392 254.2034,49.0172 C254.4574,48.9972 254.6374,48.9662 254.7454,48.9232 L254.7454,52.4272 C254.5524,52.5122 254.2614,52.5962 253.8684,52.6812 C253.4754,52.7662 252.9714,52.8092 252.3554,52.8092 C250.8264,52.8092 249.6154,52.3842 248.7244,51.5352 C247.8314,50.6852 247.3864,49.4962 247.3864,47.9662 L247.3864,40.6722 L244.5504,40.6722 L244.5504,36.9132 L245.3474,36.9132 C246.1754,36.9132 246.7854,36.6742 247.1784,36.1972 C247.5714,35.7192 247.7684,35.1302 247.7684,34.4292 L247.7684,32.2302 L251.5914,32.2302 L251.5914,36.9132 Z" id="Fill-214" fill="#FFFFFF"></path>
            <path d="M267.6456,42.9654 C267.6236,42.5844 267.5436,42.2074 267.4056,41.8344 C267.2686,41.4644 267.0566,41.1334 266.7696,40.8474 C266.4826,40.5614 266.1216,40.3274 265.6866,40.1464 C265.2506,39.9664 264.7366,39.8754 264.1416,39.8754 C263.5886,39.8754 263.1006,39.9714 262.6756,40.1634 C262.2506,40.3534 261.8906,40.5984 261.5926,40.8954 C261.2956,41.1934 261.0676,41.5214 260.9086,41.8824 C260.7496,42.2444 260.6586,42.6054 260.6376,42.9654 L267.6456,42.9654 Z M271.5956,48.0944 C271.4046,48.7744 271.1016,49.4164 270.6876,50.0214 C270.2736,50.6274 269.7686,51.1524 269.1746,51.5984 C268.5796,52.0444 267.8836,52.4004 267.0876,52.6654 C266.2916,52.9314 265.4156,53.0634 264.4596,53.0634 C263.3766,53.0634 262.3466,52.8784 261.3706,52.5064 C260.3936,52.1344 259.5326,51.5884 258.7906,50.8664 C258.0456,50.1444 257.4576,49.2624 257.0216,48.2214 C256.5856,47.1814 256.3686,46.0034 256.3686,44.6854 C256.3686,43.4334 256.5806,42.2964 257.0056,41.2774 C257.4306,40.2584 257.9986,39.3924 258.7106,38.6814 C259.4216,37.9694 260.2436,37.4184 261.1786,37.0254 C262.1126,36.6324 263.0796,36.4354 264.0776,36.4354 C266.5196,36.4354 268.4196,37.1574 269.7796,38.6024 C271.1396,40.0464 271.8176,42.0314 271.8176,44.5584 C271.8176,44.8554 271.8066,45.1374 271.7866,45.4034 C271.7646,45.6684 271.7546,45.8214 271.7546,45.8644 L260.5416,45.8644 C260.5626,46.3744 260.6846,46.8464 260.9086,47.2824 C261.1316,47.7174 261.4176,48.0944 261.7686,48.4134 C262.1186,48.7314 262.5276,48.9814 262.9946,49.1614 C263.4606,49.3424 263.9606,49.4324 264.4916,49.4324 C265.4906,49.4324 266.2696,49.2094 266.8336,48.7634 C267.3956,48.3174 267.8046,47.7444 268.0596,47.0434 L271.5956,48.0944 Z" id="Fill-216" fill="#FFFFFF"></path>
            <path d="M284.0821,41.1183 C283.6571,41.0343 283.2331,40.9913 282.8081,40.9913 C282.2551,40.9913 281.7361,41.0653 281.2471,41.2133 C280.7591,41.3623 280.3341,41.6073 279.9731,41.9463 C279.6111,42.2863 279.3191,42.7383 279.0971,43.3003 C278.8741,43.8633 278.7621,44.5693 278.7621,45.4183 L278.7621,52.5863 L274.5261,52.5863 L274.5261,36.9133 L278.6341,36.9133 L278.6341,39.2393 C278.8691,38.7293 279.1701,38.3103 279.5431,37.9813 C279.9141,37.6513 280.3071,37.4023 280.7211,37.2313 C281.1361,37.0623 281.5491,36.9453 281.9641,36.8813 C282.3781,36.8183 282.7551,36.7853 283.0951,36.7853 C283.2641,36.7853 283.4291,36.7913 283.5881,36.8013 C283.7471,36.8123 283.9121,36.8293 284.0821,36.8503 L284.0821,41.1183 Z" id="Fill-218" fill="#FFFFFF"></path>
            <path d="M24.128,34.482 L24.128,48.219 L17.588,48.219 C17.238,48.219 16.955,47.936 16.955,47.586 L16.955,41.918 C16.955,41.75 17.021,41.59 17.141,41.47 L24.128,34.482 Z M42.551,48.219 L42.551,34.482 L49.539,41.47 C49.66,41.59 49.726,41.75 49.726,41.918 L49.726,47.586 C49.726,47.936 49.442,48.219 49.092,48.219 L42.551,48.219 Z M29.278,56.095 L30.006,52.461 C31.312,52.726 32.431,52.86 33.34,52.86 C34.249,52.86 35.369,52.726 36.674,52.461 L37.401,56.095 L29.278,56.095 Z M33.34,36.405 C32.603,36.405 32.004,37.004 32.004,37.741 L32.004,50.065 C30.03,49.817 27.761,49.162 26.8,48.866 L26.8,21.005 C26.8,18.286 31.287,13.339 33.34,11.797 C35.393,13.339 39.88,18.286 39.88,21.005 L39.88,48.867 C38.918,49.162 36.649,49.818 34.676,50.065 L34.676,37.741 C34.676,37.004 34.076,36.405 33.34,36.405 Z M2.811,33.26 C2.811,16.469 16.47,2.81 33.26,2.81 C50.05,2.81 63.71,16.469 63.71,33.26 C63.71,48.444 52.537,61.066 37.981,63.342 C37.914,61.374 38.108,59.667 38.255,58.719 C38.788,58.621 39.274,58.345 39.625,57.918 C40.066,57.378 40.242,56.676 40.106,55.992 L39.273,51.83 C40.788,51.407 41.987,50.988 42.261,50.891 L49.092,50.891 C50.915,50.891 52.397,49.409 52.397,47.586 L52.397,41.918 C52.397,41.035 52.053,40.205 51.429,39.58 L42.551,30.704 L42.551,21.005 C42.551,16.34 34.984,8.84 33.34,8.84 C31.696,8.84 24.128,16.34 24.128,21.005 L24.128,30.704 L15.251,39.581 C14.627,40.206 14.283,41.036 14.283,41.918 L14.283,47.586 C14.283,49.409 15.766,50.891 17.588,50.891 L24.418,50.891 C24.692,50.988 25.893,51.407 27.407,51.83 L26.575,55.992 C26.439,56.676 26.614,57.378 27.056,57.918 C27.374,58.306 27.803,58.569 28.278,58.69 C28.426,59.631 28.628,61.355 28.56,63.345 C13.994,61.079 2.811,48.452 2.811,33.26 Z M52.666,73.519 C49.815,68.605 43.465,68.889 39.532,69.994 C38.895,68.782 38.502,67.457 38.267,66.143 C54.24,63.721 66.521,49.898 66.521,33.26 C66.521,14.92 51.6,0 33.26,0 C14.92,0 0,14.92 0,33.26 C0,49.905 12.29,63.731 28.272,66.145 C28.036,67.457 27.642,68.781 27.003,69.994 C23.069,68.89 16.719,68.605 13.869,73.519 C10.548,72.113 4.863,71.429 0.395,76.315 C-0.128,76.888 -0.088,77.776 0.485,78.301 C0.754,78.547 1.093,78.669 1.433,78.669 C1.814,78.669 2.193,78.515 2.47,78.211 C7.357,72.863 13.535,76.467 13.792,76.621 C14.15,76.838 14.587,76.885 14.982,76.749 C15.377,76.612 15.691,76.306 15.838,75.914 C18.123,69.817 26.793,72.861 27.158,72.994 C27.764,73.211 28.448,72.991 28.808,72.452 C29.37,71.61 29.807,70.714 30.16,69.799 C31.436,66.492 31.497,62.911 31.307,60.43 C31.258,59.793 31.195,59.233 31.131,58.767 L35.404,58.767 C35.34,59.233 35.277,59.793 35.228,60.43 C35.038,62.911 35.1,66.492 36.375,69.799 C36.729,70.714 37.166,71.61 37.727,72.452 C38.086,72.991 38.769,73.215 39.375,72.994 C39.743,72.861 48.412,69.819 50.697,75.914 C50.844,76.304 51.157,76.608 51.552,76.746 C51.944,76.883 52.381,76.839 52.739,76.624 C52.998,76.466 59.176,72.865 64.065,78.211 C64.342,78.515 64.722,78.669 65.102,78.669 C65.441,78.669 65.781,78.547 66.05,78.301 C66.623,77.776 66.663,76.888 66.14,76.315 C61.672,71.429 55.988,72.116 52.666,73.519 Z" id="Fill-220" fill="#8D9EFF"></path>
        </g>
    </g>
</svg>