<?xml version="1.0" encoding="UTF-8"?>
<svg width="78px" height="76px" viewBox="0 0 78 76" version="1.1" xmlns="http://www.w3.org/2000/svg" xmlns:xlink="http://www.w3.org/1999/xlink">
    <!-- Generator: Sketch 50.2 (55047) - http://www.bohemiancoding.com/sketch -->
    <title>Group 186</title>
    <desc>Created with Sketch.</desc>
    <defs></defs>
    <g id="Page-1" stroke="none" stroke-width="1" fill="none" fill-rule="evenodd">
        <g id="stratobooster-website-final2" transform="translate(-310.000000, -1098.000000)">
            <g id="Group-186" transform="translate(310.000000, 1098.690000)">
                <path d="M29.9414,0.5288 C23.0954,0.5288 17.5464,5.5078 17.5464,12.9248 C17.5464,19.6598 22.1294,26.0708 28.0994,27.1928 L28.1274,27.2748 C28.4354,27.3278 28.7554,27.4018 29.0824,27.4598 L29.0884,27.4598 C29.3104,27.4598 29.5124,27.4888 29.7044,27.5318 C29.8984,27.5388 30.0894,27.5258 30.2744,27.4838 C30.3104,27.4748 30.3394,27.4858 30.3744,27.4808 L30.3334,27.3598 C36.9954,27.0938 42.3364,20.1968 42.3364,12.9248 C42.3364,5.5078 36.7864,0.5288 29.9414,0.5288 Z" id="Stroke-178" stroke="#6775EE" stroke-width="2" stroke-linecap="round" stroke-linejoin="round"></path>
                <path d="M28.4351,28.5962 C31.3401,32.7712 27.1941,35.7892 26.6431,39.8392 C26.1761,43.2802 29.1091,45.3052 29.7451,48.4422 C30.0011,49.7022 31.9291,49.1692 31.6741,47.9102 C31.3241,46.1862 30.3501,44.9272 29.5011,43.4252 C28.1001,40.9472 28.7471,39.1672 29.9301,36.7842 C31.4801,33.6612 32.3101,30.6742 30.1621,27.5872 C29.4321,26.5372 27.6971,27.5362 28.4351,28.5962" id="Fill-180" fill="#6775EE"></path>
                <path d="M17.2178,49.9565 L30.3798,72.2285 L4.0558,72.2285 L17.2178,49.9565 Z M30.3788,67.7085 L45.3578,39.6225 L62.7478,72.2285 L32.9118,72.2285 L30.3128,67.8315 L30.3788,67.7085 Z M0.2358,74.4085 L66.3818,74.4085 L46.3198,36.7925 C46.1268,36.4325 45.7668,36.2165 45.3578,36.2165 C44.9488,36.2165 44.5888,36.4325 44.3958,36.7935 L29.0148,65.6355 L18.1558,47.2585 C17.9578,46.9235 17.6078,46.7235 17.2178,46.7235 C16.8278,46.7235 16.4778,46.9235 16.2798,47.2585 L0.2358,74.4085 Z" id="Fill-182" fill="#6775EE"></path>
                <path d="M55.48,45.8667 C52.196,45.6777 49.381,48.1847 49.191,51.4697 C49.001,54.7527 51.509,57.5687 54.793,57.7587 C55.022,57.7707 55.251,57.7707 55.48,57.7587 L72.768,57.7587 C75.335,57.7577 77.416,55.6757 77.415,53.1077 C77.414,50.5417 75.334,48.4627 72.768,48.4607 L72.437,48.4607 C72.985,44.5037 70.222,40.8517 66.265,40.3037 C62.308,39.7557 58.655,42.5187 58.107,46.4757 C57.29,46.0737 56.391,45.8647 55.48,45.8667" id="Fill-184" fill="#6775EE"></path>
            </g>
        </g>
    </g>
</svg>