<?xml version="1.0" encoding="UTF-8"?>
<svg width="69px" height="75px" viewBox="0 0 69 75" version="1.1" xmlns="http://www.w3.org/2000/svg" xmlns:xlink="http://www.w3.org/1999/xlink">
    <!-- Generator: Sketch 50.2 (55047) - http://www.bohemiancoding.com/sketch -->
    <title>Group 177</title>
    <desc>Created with Sketch.</desc>
    <defs></defs>
    <g id="Page-1" stroke="none" stroke-width="1" fill="none" fill-rule="evenodd">
        <g id="stratobooster-website-final2" transform="translate(-702.000000, -1098.000000)" fill="#6775EE">
            <g id="Group-177" transform="translate(702.000000, 1097.690000)">
                <path d="M25.2979,73.2163 C19.5329,73.2163 14.2709,71.0693 10.2299,67.5523 C10.2679,67.4453 10.2979,67.3353 10.2979,67.2163 C10.2979,64.1593 11.8889,55.8363 15.4729,55.2003 C19.7069,54.4463 21.4409,55.7603 22.3159,60.4023 C23.1819,65.0023 26.0539,68.2163 29.2979,68.2163 C31.6279,68.2163 33.3999,65.7143 35.1139,63.2943 C36.4679,61.3833 38.0029,59.2163 39.2979,59.2163 C42.6189,59.2163 43.2979,63.1593 43.2979,64.2163 C43.2979,64.2933 43.3249,64.3613 43.3419,64.4333 C39.1259,69.7723 32.6119,73.2163 25.2979,73.2163 M2.2979,50.2163 C2.2979,41.9583 6.6869,34.7243 13.2399,30.6673 C13.1619,32.9223 13.2589,36.5913 15.5909,38.9233 C17.4439,40.7783 20.1109,39.9553 22.2539,39.2953 C23.6469,38.8643 25.0869,38.4193 25.5909,38.9233 C26.5659,39.8983 27.8939,43.7543 28.7489,48.0933 C29.3359,51.0623 31.9719,53.2163 35.0169,53.2163 C37.8189,53.2163 40.3299,51.3713 41.1259,48.7313 C42.0649,45.6093 42.8069,40.3113 41.0049,38.5093 C40.2399,37.7443 39.6019,36.3993 39.3769,35.0803 C39.1849,33.9503 39.3209,32.9903 39.7219,32.3263 C44.9449,36.5463 48.2979,42.9933 48.2979,50.2163 C48.2979,54.5493 47.0709,58.5923 44.9789,62.0573 C44.2959,59.6233 42.4719,57.2163 39.2979,57.2163 C36.9679,57.2163 35.1959,59.7183 33.4819,62.1383 C32.1279,64.0493 30.5929,66.2163 29.2979,66.2163 C27.3839,66.2163 25.0459,64.0913 24.2799,60.0303 C23.2039,54.3193 20.4669,52.2893 15.1229,53.2323 C10.3169,54.0833 8.7499,62.1003 8.3909,65.7553 C4.6209,61.6563 2.2979,56.2093 2.2979,50.2163 M38.1309,31.1393 C36.4019,33.7093 37.6559,37.9873 39.5909,39.9233 C40.3199,40.6533 40.3139,44.4873 39.2109,48.1543 C38.6679,49.9573 36.9439,51.2163 35.0169,51.2163 C32.9239,51.2163 31.1129,49.7393 30.7119,47.7063 C30.4449,46.3563 29.0149,39.5193 27.0049,37.5093 C25.6509,36.1543 23.6249,36.7803 21.6649,37.3843 C19.4559,38.0683 17.9409,38.4433 17.0049,37.5093 C15.0029,35.5073 15.1839,31.7673 15.2719,29.9703 C15.2799,29.7933 15.2819,29.6803 15.2869,29.5413 C18.3179,28.0673 21.7069,27.2163 25.2979,27.2163 C30.0469,27.2163 34.4629,28.6633 38.1309,31.1393 M25.2979,25.2163 C11.4909,25.2163 0.2979,36.4083 0.2979,50.2163 C0.2979,64.0233 11.4909,75.2163 25.2979,75.2163 C39.1049,75.2163 50.2979,64.0233 50.2979,50.2163 C50.2979,36.4083 39.1049,25.2163 25.2979,25.2163" id="Fill-173"></path>
                <path d="M68.0063,5.3862 C66.4013,5.2602 65.2533,4.0922 65.1273,2.5072 C65.1143,2.3412 64.9693,2.2152 64.8023,2.2152 L64.7933,2.2152 C64.6263,2.2152 64.4813,2.3412 64.4683,2.5072 C64.3423,4.0922 63.1943,5.2602 61.5893,5.3862 C61.4233,5.3992 61.2983,5.5442 61.2983,5.7112 L61.2983,5.7202 C61.2983,5.8872 61.4233,6.0322 61.5893,6.0452 C63.1943,6.1712 64.3423,7.3382 64.4683,8.9242 C64.4813,9.0902 64.6263,9.2152 64.7933,9.2152 L64.8013,9.2152 C64.9693,9.2152 65.1143,9.0902 65.1273,8.9242 C65.2533,7.3382 66.4013,6.1712 68.0063,6.0452 C68.1733,6.0322 68.2983,5.8872 68.2983,5.7202 L68.2983,5.7112 C68.2983,5.5442 68.1733,5.3992 68.0063,5.3862 M62.2983,13.2152 C64.1373,13.2152 65.8473,12.6602 67.2723,11.7132 C67.0103,17.5562 62.2053,22.2152 56.2983,22.2152 C50.2223,22.2152 45.2983,17.2902 45.2983,11.2152 C45.2983,5.8792 49.0993,1.4332 54.1413,0.4302 C53.6053,1.5812 53.2983,2.8622 53.2983,4.2152 C53.2983,9.1862 57.3273,13.2152 62.2983,13.2152" id="Fill-175"></path>
            </g>
        </g>
    </g>
</svg>