<?xml version="1.0" encoding="UTF-8"?>
<svg width="69px" height="76px" viewBox="0 0 69 76" version="1.1" xmlns="http://www.w3.org/2000/svg" xmlns:xlink="http://www.w3.org/1999/xlink">
    <!-- Generator: Sketch 50.2 (55047) - http://www.bohemiancoding.com/sketch -->
    <title>Group 154</title>
    <desc>Created with Sketch.</desc>
    <defs></defs>
    <g id="Page-1" stroke="none" stroke-width="1" fill="none" fill-rule="evenodd">
        <g id="stratobooster-website-final2" transform="translate(-702.000000, -1366.000000)" fill="#6775EE">
            <g id="Group-154" transform="translate(702.000000, 1366.690000)">
                <path d="M68.0063,3.312 C66.4013,3.185 65.2533,2.018 65.1273,0.433 C65.1143,0.266 64.9693,0.141 64.8023,0.141 L64.7933,0.141 C64.6263,0.141 64.4813,0.266 64.4683,0.433 C64.3423,2.018 63.1943,3.185 61.5893,3.312 C61.4233,3.325 61.2983,3.469 61.2983,3.636 L61.2983,3.646 C61.2983,3.813 61.4233,3.958 61.5893,3.97 C63.1943,4.097 64.3423,5.264 64.4683,6.849 C64.4813,7.016 64.6263,7.141 64.7933,7.141 L64.8013,7.141 C64.9693,7.141 65.1143,7.016 65.1273,6.849 C65.2533,5.264 66.4013,4.097 68.0063,3.97 C68.1733,3.958 68.2983,3.813 68.2983,3.646 L68.2983,3.636 C68.2983,3.469 68.1733,3.325 68.0063,3.312" id="Fill-146"></path>
                <path d="M2.5347,30.9604 L2.5347,39.3174 C2.5347,54.0514 11.7287,67.4304 25.4517,72.7314 C39.1747,67.4304 48.3687,54.0514 48.3687,39.3174 L48.3687,30.9604 C43.6907,30.4904 39.9597,26.7594 39.4897,22.0804 L11.4137,22.0804 C10.9437,26.7594 7.2127,30.4904 2.5347,30.9604 M25.4517,74.8004 C25.3327,74.8004 25.2147,74.7784 25.1007,74.7364 C10.4077,69.2394 0.5347,55.0064 0.5347,39.3174 L0.5347,30.0104 C0.5347,29.4574 0.9827,29.0104 1.5347,29.0104 C5.9067,29.0104 9.4637,25.4524 9.4637,21.0804 C9.4637,20.5274 9.9117,20.0804 10.4637,20.0804 L40.4397,20.0804 C40.9927,20.0804 41.4397,20.5274 41.4397,21.0804 C41.4397,25.4524 44.9967,29.0104 49.3687,29.0104 C49.9217,29.0104 50.3687,29.4574 50.3687,30.0104 L50.3687,39.3174 C50.3687,55.0064 40.4967,69.2394 25.8027,74.7364 C25.6887,74.7784 25.5707,74.8004 25.4517,74.8004" id="Fill-148"></path>
                <path d="M23.0049,53.6265 C22.7519,53.6265 22.4989,53.5305 22.3049,53.3405 L15.9959,47.1525 C15.6009,46.7665 15.5949,46.1335 15.9819,45.7385 C16.3679,45.3455 17.0009,45.3375 17.3959,45.7255 L22.9979,51.2185 L35.7699,38.4295 C36.1589,38.0375 36.7919,38.0385 37.1839,38.4285 C37.5749,38.8185 37.5749,39.4515 37.1849,39.8435 L23.7129,53.3335 C23.5169,53.5285 23.2609,53.6265 23.0049,53.6265" id="Fill-150"></path>
                <path d="M55.8999,5.8823 L55.1099,8.0253 C54.4699,9.7593 53.1029,11.1263 51.3689,11.7663 L49.2269,12.5563 C49.1459,12.5853 49.0929,12.6623 49.0929,12.7483 C49.0929,12.8343 49.1459,12.9103 49.2269,12.9413 L51.3689,13.7313 C53.1029,14.3703 54.4699,15.7373 55.1099,17.4723 L55.8999,19.6143 C55.9299,19.6953 56.0069,19.7483 56.0919,19.7483 C56.1779,19.7483 56.2549,19.6953 56.2839,19.6143 L57.0749,17.4723 C57.7149,15.7373 59.0819,14.3703 60.8169,13.7313 L62.9589,12.9413 C63.0399,12.9103 63.0929,12.8343 63.0929,12.7483 C63.0929,12.6623 63.0399,12.5853 62.9589,12.5563 L60.8169,11.7663 C59.0819,11.1263 57.7149,9.7593 57.0749,8.0253 L56.2849,5.8823 C56.2549,5.8023 56.1779,5.7473 56.0919,5.7473 C56.0069,5.7473 55.9299,5.8023 55.8999,5.8823" id="Fill-152"></path>
            </g>
        </g>
    </g>
</svg>