<?xml version="1.0" encoding="UTF-8"?>
<svg width="79px" height="76px" viewBox="0 0 79 76" version="1.1" xmlns="http://www.w3.org/2000/svg" xmlns:xlink="http://www.w3.org/1999/xlink">
    <!-- Generator: Sketch 50.2 (55047) - http://www.bohemiancoding.com/sketch -->
    <title>Group 163</title>
    <desc>Created with Sketch.</desc>
    <defs></defs>
    <g id="Page-1" stroke="none" stroke-width="1" fill="none" fill-rule="evenodd">
        <g id="stratobooster-website-final2" transform="translate(-316.000000, -1366.000000)">
            <g id="Group-163" transform="translate(316.000000, 1365.690000)">
                <path d="M65.7607,51.5835 L42.9267,72.0425 C42.1037,72.8195 41.0277,73.2365 39.9377,73.2365 C39.5097,73.2365 39.0807,73.1725 38.6627,73.0405 L15.4597,64.9875 C15.1517,64.8835 14.8257,64.9025 14.5417,65.0475 L10.7167,66.9585 L10.7167,47.6465 L20.5627,45.1875 L33.8217,49.6055 C35.1487,50.0475 36.0407,51.2875 36.0407,52.6915 C36.0407,53.6325 35.6327,54.5255 34.9227,55.1445 C34.2037,55.7665 33.2877,56.0375 32.3347,55.9055 L27.6987,55.2425 C27.3887,55.1925 27.0777,55.2775 26.8237,55.4665 C26.5697,55.6575 26.4037,55.9355 26.3587,56.2475 C26.2667,56.8945 26.7187,57.4955 27.3657,57.5885 L27.6397,57.6285 L27.6337,57.6425 L41.1477,60.3455 C41.4367,60.4045 41.7417,60.3505 41.9887,60.1985 L62.6677,47.7515 C63.5287,47.1775 64.6777,47.2105 65.5157,47.8395 C66.0997,48.2765 66.4577,48.9445 66.4997,49.6725 C66.5427,50.3925 66.2667,51.1055 65.7607,51.5835 M66.9307,45.9415 C65.2947,44.7125 63.0717,44.6375 61.3997,45.7525 L41.1607,57.9315 L41.0857,57.9165 L36.4007,56.9795 L36.6757,56.7155 C37.7937,55.6355 38.4087,54.2045 38.4087,52.6865 C38.4087,50.2655 36.8667,48.1245 34.5707,47.3585 L20.9837,42.8305 C20.7677,42.7595 20.5437,42.7505 20.3217,42.8055 L10.6747,45.2175 L10.6437,44.9965 C10.4627,43.7055 9.4127,42.7695 8.1477,42.7695 L1.2237,42.7695 C0.5707,42.7695 0.0397,43.3005 0.0397,43.9535 C0.0397,44.6065 0.5707,45.1385 1.2237,45.1385 L8.3477,45.1385 L8.3477,70.4625 L1.2237,70.4625 C0.5707,70.4625 0.0397,70.9935 0.0397,71.6465 C0.0397,72.3005 0.5707,72.8315 1.2237,72.8315 L8.1477,72.8315 C9.5637,72.8315 10.7167,71.6795 10.7167,70.2625 L10.7167,69.6075 L10.8267,69.5535 L15.1537,67.3895 L15.2337,67.4175 L37.9177,75.2885 C38.5677,75.4945 39.2507,75.6005 39.9427,75.6005 C41.6677,75.6005 43.2977,74.9555 44.5317,73.7835 L67.3667,53.3255 C68.3997,52.3475 68.9467,50.9645 68.8637,49.5365 C68.7827,48.1115 68.0787,46.8015 66.9307,45.9415" id="Fill-155" fill="#6775EE"></path>
                <path d="M55.4697,18.9712 C55.4697,19.6162 54.9437,20.1382 54.2977,20.1382 C53.6517,20.1382 53.1257,19.6162 53.1257,18.9712 L53.1257,18.3882 C53.1257,18.0672 52.8637,17.8052 52.5397,17.8052 L49.9857,17.8052 C49.1327,17.8052 48.4387,18.4962 48.4387,19.3452 C48.4387,20.0152 48.8637,20.6052 49.4957,20.8152 L52.8097,21.9142 C54.4007,22.4432 55.4697,23.9192 55.4697,25.5902 C55.4697,27.6042 53.9247,29.2642 51.9537,29.4532 L51.9537,29.4712 C51.9537,30.1162 51.4277,30.6382 50.7827,30.6382 C50.1367,30.6382 49.6107,30.1162 49.6107,29.4712 L49.0247,29.4712 C47.4087,29.4712 46.0947,28.1632 46.0947,26.5552 L46.0947,25.9712 C46.0947,25.3272 46.6207,24.8052 47.2667,24.8052 C47.9127,24.8052 48.4387,25.3272 48.4387,25.9712 L48.4387,26.5552 C48.4387,26.8762 48.7007,27.1382 49.0247,27.1382 L51.5787,27.1382 C52.4317,27.1382 53.1257,26.4482 53.1257,25.5992 C53.1257,24.9302 52.7007,24.3392 52.0677,24.1282 L48.7547,23.0292 C47.1637,22.5012 46.0947,21.0252 46.0947,19.3542 C46.0947,17.3402 47.6397,15.6792 49.6107,15.4902 L49.6107,15.4712 C49.6107,14.8272 50.1367,14.3052 50.7827,14.3052 C51.4277,14.3052 51.9537,14.8272 51.9537,15.4712 L52.5397,15.4712 C54.1557,15.4712 55.4697,16.7802 55.4697,18.3882 L55.4697,18.9712 Z M50.7827,8.4712 C43.0287,8.4712 36.7197,14.7512 36.7197,22.4712 C36.7197,30.1922 43.0287,36.4712 50.7827,36.4712 C58.5357,36.4712 64.8447,30.1922 64.8447,22.4712 C64.8447,14.7512 58.5357,8.4712 50.7827,8.4712 Z" id="Fill-157" fill="#6775EE"></path>
                <path d="M54.2979,20.1382 C54.9439,20.1382 55.4699,19.6162 55.4699,18.9712 L55.4699,18.3882 C55.4699,16.7802 54.1549,15.4712 52.5399,15.4712 L51.9539,15.4712 C51.9539,14.8272 51.4279,14.3052 50.7819,14.3052 C50.1359,14.3052 49.6109,14.8272 49.6109,15.4712 L49.6109,15.4902 C47.6399,15.6792 46.0949,17.3402 46.0949,19.3542 C46.0949,21.0252 47.1639,22.5012 48.7549,23.0292 L52.0679,24.1282 C52.7009,24.3392 53.1259,24.9302 53.1259,25.5992 C53.1259,26.4482 52.4319,27.1382 51.5789,27.1382 L49.0249,27.1382 C48.7009,27.1382 48.4389,26.8762 48.4389,26.5552 L48.4389,25.9712 C48.4389,25.3272 47.9129,24.8052 47.2669,24.8052 C46.6209,24.8052 46.0949,25.3272 46.0949,25.9712 L46.0949,26.5552 C46.0949,28.1632 47.4089,29.4712 49.0249,29.4712 L49.6109,29.4712 C49.6109,30.1162 50.1359,30.6382 50.7819,30.6382 C51.4279,30.6382 51.9539,30.1162 51.9539,29.4712 L51.9539,29.4532 C53.9239,29.2642 55.4699,27.6042 55.4699,25.5902 C55.4699,23.9192 54.4009,22.4432 52.8099,21.9142 L49.4959,20.8152 C48.8629,20.6052 48.4389,20.0152 48.4389,19.3452 C48.4389,18.4962 49.1319,17.8052 49.9859,17.8052 L52.5399,17.8052 C52.8629,17.8052 53.1259,18.0672 53.1259,18.3882 L53.1259,18.9712 C53.1259,19.6162 53.6519,20.1382 54.2979,20.1382" id="Fill-159" fill="#FFFFFF"></path>
                <path d="M78.2583,6.4116 C78.2583,9.6576 75.6273,12.2886 72.3813,12.2886 C69.1353,12.2886 66.5043,9.6576 66.5043,6.4116 C66.5043,3.1656 69.1353,0.5346 72.3813,0.5346 C75.6273,0.5346 78.2583,3.1656 78.2583,6.4116" id="Fill-161" fill="#6775EE"></path>
            </g>
        </g>
    </g>
</svg>