<?xml version="1.0" encoding="UTF-8"?>
<svg width="73px" height="75px" viewBox="0 0 73 75" version="1.1" xmlns="http://www.w3.org/2000/svg" xmlns:xlink="http://www.w3.org/1999/xlink">
    <!-- Generator: Sketch 50.2 (55047) - http://www.bohemiancoding.com/sketch -->
    <title>Group 172</title>
    <desc>Created with Sketch.</desc>
    <defs></defs>
    <g id="Page-1" stroke="none" stroke-width="1" fill="none" fill-rule="evenodd">
        <g id="stratobooster-website-final2" transform="translate(-1072.000000, -1098.000000)">
            <g id="Group-172" transform="translate(1072.000000, 1098.690000)">
                <path d="M65.1055,0.3501 L64.3155,2.4921 C63.6755,4.2261 62.3085,5.5931 60.5745,6.2331 L58.4315,7.0241 C58.3505,7.0531 58.2975,7.1301 58.2975,7.2151 C58.2975,7.3011 58.3505,7.3781 58.4315,7.4081 L60.5745,8.1991 C62.3085,8.8371 63.6755,10.2041 64.3155,11.9391 L65.1055,14.0811 C65.1345,14.1631 65.2115,14.2161 65.2975,14.2161 C65.3835,14.2161 65.4595,14.1631 65.4895,14.0811 L66.2805,11.9401 C66.9195,10.2041 68.2875,8.8371 70.0215,8.1991 L72.1645,7.4081 C72.2445,7.3781 72.2975,7.3011 72.2975,7.2151 C72.2975,7.1301 72.2445,7.0531 72.1645,7.0241 L70.0215,6.2331 C68.2875,5.5931 66.9195,4.2261 66.2805,2.4931 L65.4895,0.3501 C65.4595,0.2691 65.3835,0.2151 65.2975,0.2151 C65.2115,0.2151 65.1345,0.2691 65.1055,0.3501" id="Fill-164" fill="#6775EE"></path>
                <path d="M52.915,41.2202 C52.915,41.8002 52.444,42.2712 51.864,42.2712 L44.509,42.2712 L44.509,26.3282 L52.607,34.4272 C52.807,34.6262 52.915,34.8902 52.915,35.1702 L52.915,41.2202 Z M39.844,50.6772 L30.26,50.6772 L31.199,45.9802 C32.528,46.2662 33.894,46.4742 35.052,46.4742 C36.21,46.4742 37.576,46.2662 38.904,45.9802 L39.844,50.6772 Z M27.696,12.8492 C27.696,9.6622 32.896,4.0542 35.052,2.5582 C37.207,4.0542 42.407,9.6622 42.407,12.8492 L42.407,42.8632 C40.681,43.4082 38.135,44.0852 36.103,44.2852 L36.103,30.7122 C36.103,30.1322 35.632,29.6612 35.052,29.6612 C34.472,29.6612 34.001,30.1322 34.001,30.7122 L34.001,44.2852 C31.97,44.0852 29.423,43.4082 27.696,42.8632 L27.696,12.8492 Z M18.239,42.2712 C17.66,42.2712 17.188,41.8002 17.188,41.2202 L17.188,35.1702 C17.188,34.8902 17.298,34.6262 17.496,34.4272 L25.595,26.3282 L25.595,42.2712 L18.239,42.2712 Z M54.094,32.9422 L44.509,23.3572 L44.509,12.8492 C44.509,7.8582 36.365,0.2402 35.052,0.2402 C33.738,0.2402 25.595,7.8582 25.595,12.8492 L25.595,23.3572 L16.01,32.9422 C15.419,33.5332 15.087,34.3342 15.087,35.1702 L15.087,41.2202 C15.087,42.9612 16.498,44.3722 18.239,44.3722 L25.595,44.3722 C25.595,44.3722 27.149,44.9372 29.156,45.4802 L28.199,50.2652 C27.939,51.5662 28.934,52.7802 30.26,52.7802 L39.844,52.7802 C41.17,52.7802 42.165,51.5662 41.905,50.2652 L40.948,45.4802 C42.954,44.9372 44.509,44.3722 44.509,44.3722 L51.864,44.3722 C53.605,44.3722 55.018,42.9612 55.018,41.2202 L55.018,35.1702 C55.018,34.3342 54.685,33.5332 54.094,32.9422 Z" id="Fill-166" fill="#6775EE"></path>
                <path d="M30.9668,51.9292 C30.9668,51.9292 32.9668,60.9292 28.9668,66.9292 C28.9668,66.9292 17.9668,62.9292 14.9668,70.9292 C14.9668,70.9292 7.1438,66.1712 0.9958,72.8962" id="Stroke-168" stroke="#6775EE" stroke-width="2" stroke-linecap="round" stroke-linejoin="round"></path>
                <path d="M38.9824,51.9292 C38.9824,51.9292 36.9824,60.9292 40.9824,66.9292 C40.9824,66.9292 51.9824,62.9292 54.9824,70.9292 C54.9824,70.9292 62.8054,66.1712 68.9534,72.8962" id="Stroke-170" stroke="#6775EE" stroke-width="2" stroke-linecap="round" stroke-linejoin="round"></path>
            </g>
        </g>
    </g>
</svg>