<?xml version="1.0" encoding="UTF-8"?>
<svg width="77px" height="75px" viewBox="0 0 77 75" version="1.1" xmlns="http://www.w3.org/2000/svg" xmlns:xlink="http://www.w3.org/1999/xlink">
    <!-- Generator: Sketch 50.2 (55047) - http://www.bohemiancoding.com/sketch -->
    <title>Group</title>
    <desc>Created with Sketch.</desc>
    <defs></defs>
    <g id="Page-1" stroke="none" stroke-width="1" fill="none" fill-rule="evenodd">
        <g id="stratobooster-website-final2" transform="translate(-1082.000000, -1366.000000)" fill="#6775EE">
            <g id="Group" transform="translate(1082.000000, 1366.000000)">
                <polygon id="Fill-143" points="71.2646 0.6124 60.6196 0.6124 55.2976 9.8314 60.6196 19.0494 71.2646 19.0494 76.5866 9.8314"></polygon>
                <path d="M33.8398,46.4922 L31.7188,48.6142 L26.0618,42.9572 L28.1838,40.8362 C28.4388,40.5812 28.7358,40.5432 28.8908,40.5432 C29.0448,40.5432 29.3428,40.5812 29.5978,40.8362 L33.8398,45.0782 C34.2308,45.4692 34.2308,46.1022 33.8398,46.4922 Z M8.0828,72.2502 C7.8938,72.4392 7.6428,72.5432 7.3758,72.5432 L2.1328,72.5432 L2.1328,67.3012 C2.1328,67.0332 2.2368,66.7822 2.4258,66.5932 L24.6478,44.3712 L30.3048,50.0282 L8.0828,72.2502 Z M35.2538,43.6642 L31.0118,39.4222 C30.4258,38.8362 29.6578,38.5432 28.8908,38.5432 C28.1228,38.5432 27.3548,38.8362 26.7698,39.4222 L1.0118,65.1792 C0.4488,65.7412 0.1328,66.5052 0.1328,67.3012 L0.1328,72.5432 C0.1328,73.6472 1.0278,74.5432 2.1328,74.5432 L7.3758,74.5432 C8.1708,74.5432 8.9348,74.2262 9.4968,73.6642 L35.2538,47.9072 C36.4258,46.7352 36.4258,44.8362 35.2538,43.6642 Z M44.1328,30.5432 L48.1328,30.5432 L48.1328,26.5432 L44.1328,26.5432 L44.1328,30.5432 Z M44.1328,72.5432 L48.1328,72.5432 L48.1328,68.5432 L44.1328,68.5432 L44.1328,72.5432 Z M2.1328,30.5432 L6.1328,30.5432 L6.1328,26.5432 L2.1328,26.5432 L2.1328,30.5432 Z M48.1328,32.5432 C49.2368,32.5432 50.1328,31.6472 50.1328,30.5432 L50.1328,26.5432 C50.1328,25.4382 49.2368,24.5432 48.1328,24.5432 L44.1328,24.5432 C43.0278,24.5432 42.1328,25.4382 42.1328,26.5432 L42.1328,28.5432 L8.1328,28.5432 L8.1328,26.5432 C8.1328,25.4382 7.2368,24.5432 6.1328,24.5432 L2.1328,24.5432 C1.0278,24.5432 0.1328,25.4382 0.1328,26.5432 L0.1328,30.5432 C0.1328,31.6472 1.0278,32.5432 2.1328,32.5432 L4.1328,32.5432 L4.1328,47.5432 C4.1328,48.0962 4.5808,48.5432 5.1328,48.5432 C5.6858,48.5432 6.1328,48.0962 6.1328,47.5432 L6.1328,32.5432 C7.2368,32.5432 8.1328,31.6472 8.1328,30.5432 L42.1328,30.5432 C42.1328,31.6472 43.0278,32.5432 44.1328,32.5432 L44.1328,66.5432 C43.0278,66.5432 42.1328,67.4382 42.1328,68.5432 L27.1328,68.5432 C26.5808,68.5432 26.1328,68.9912 26.1328,69.5432 C26.1328,70.0962 26.5808,70.5432 27.1328,70.5432 L42.1328,70.5432 L42.1328,72.5432 C42.1328,73.6472 43.0278,74.5432 44.1328,74.5432 L48.1328,74.5432 C49.2368,74.5432 50.1328,73.6472 50.1328,72.5432 L50.1328,68.5432 C50.1328,67.4382 49.2368,66.5432 48.1328,66.5432 L46.1328,66.5432 L46.1328,32.5432 L48.1328,32.5432 Z" id="Fill-144"></path>
            </g>
        </g>
    </g>
</svg>