<?xml version="1.0" encoding="UTF-8"?>
<svg width="1454px" height="319px" viewBox="0 0 1454 319" version="1.1" xmlns="http://www.w3.org/2000/svg" xmlns:xlink="http://www.w3.org/1999/xlink">
    <!-- Generator: Sketch 50.2 (55047) - http://www.bohemiancoding.com/sketch -->
    <title>Group 95</title>
    <desc>Created with Sketch.</desc>
    <defs>
        <path d="M704.93,22.08 C322.625,116.759 315.976,182.626 0.159,78.682 L0.159,318.52 L1453.999,318.52 L1453.999,174.469 C1434.948,161.938 1183.759,0.53 886.301,0.521 C827.178,0.519 766.252,6.893 704.93,22.08" id="path-1"></path>
        <linearGradient x1="50.0399277%" y1="97.965341%" x2="50.0399277%" y2="-0.205467542%" id="linearGradient-3">
            <stop stop-color="#FFFFFF" offset="0%"></stop>
            <stop stop-color="#F4F4F9" offset="100%"></stop>
        </linearGradient>
    </defs>
    <g id="Page-1" stroke="none" stroke-width="1" fill="none" fill-rule="evenodd">
        <g id="stratobooster-website-final2" transform="translate(-1.000000, -1783.000000)">
            <g id="Group-95" transform="translate(1.000000, 1782.690000)">
                <mask id="mask-2" fill="white">
                    <use xlink:href="#path-1"></use>
                </mask>
                <g id="Clip-94"></g>
                <path d="M704.93,22.08 C322.625,116.759 315.976,182.626 0.159,78.682 L0.159,318.52 L1453.999,318.52 L1453.999,174.469 C1434.948,161.938 1183.759,0.53 886.301,0.521 C827.178,0.519 766.252,6.893 704.93,22.08" id="Fill-93" fill="url(#linearGradient-3)" mask="url(#mask-2)"></path>
            </g>
        </g>
    </g>
</svg>