<?xml version="1.0" encoding="UTF-8"?>
<svg width="1264px" height="204px" viewBox="0 0 1264 204" version="1.1" xmlns="http://www.w3.org/2000/svg" xmlns:xlink="http://www.w3.org/1999/xlink">
    <!-- Generator: Sketch 50.2 (55047) - http://www.bohemiancoding.com/sketch -->
    <title>Group 2</title>
    <desc>Created with Sketch.</desc>
    <defs>
        <path d="M24.69,0.157 C21.507,0.312 18.798,2.755 17.396,5.618 C15.996,8.481 15.659,11.729 15.344,14.902 C15.047,17.891 14.748,20.878 14.453,23.867 C11.638,22.378 7.989,22.393 5.383,24.222 C2.779,26.05 1.532,29.743 2.818,32.654 C3.983,35.293 6.751,36.8 8.64,38.981 C10.528,41.165 11.099,45.221 8.48,46.437 C7.691,46.803 6.788,46.804 5.934,46.974 C1.348,47.888 -0.851,53.79 0.743,58.186 C2.336,62.584 6.53,65.518 10.825,67.375 C13.848,68.682 17.038,69.599 20.293,70.104 L20.288,70.104 C21.674,70.41 23.195,70.549 24.792,70.536 C25.129,70.549 25.466,70.557 25.804,70.561 L25.373,70.525 C33.427,70.28 43.178,66.302 47.128,60.424 C48.736,58.029 49.886,55.104 49.269,52.286 C48.651,49.469 45.73,47.064 42.951,47.839 C41.718,48.182 40.649,48.931 39.475,49.423 C38.805,49.704 37.901,49.98 37.169,49.793 C36.885,49.719 36.614,49.519 36.541,49.233 C36.505,49.094 36.52,48.949 36.535,48.805 C36.62,47.965 36.701,47.127 36.866,46.296 C37.135,44.946 37.565,43.628 38.14,42.379 C39.278,39.903 40.986,37.685 43.13,35.999 C44.887,34.617 46.933,33.558 48.38,31.853 C49.826,30.148 50.49,27.455 49.089,25.711 C47.367,23.568 44.022,24.224 41.364,24.929 C38.706,25.633 35.151,25.801 33.964,23.319 C33.531,22.414 33.562,21.362 33.623,20.36 C33.883,16.168 34.539,11.883 33.452,7.827 C32.394,3.875 29.063,0.149 25.013,0.149 C24.906,0.149 24.798,0.152 24.69,0.157" id="path-1"></path>
        <linearGradient x1="50%" y1="0%" x2="50%" y2="100%" id="linearGradient-3">
            <stop stop-color="#6775EE" offset="0%"></stop>
            <stop stop-color="#58C4EC" offset="100%"></stop>
        </linearGradient>
    </defs>
    <g id="Page-1" stroke="none" stroke-width="1" fill="none" fill-rule="evenodd">
        <g id="stratobooster-website-final2" transform="translate(-100.000000, -1726.000000)">
            <g id="Group-2" transform="translate(100.000000, 1725.000000)">
                <g id="Group" transform="translate(0.000000, 43.000000)">
                    <g id="Group-133" transform="translate(1097.000000, 29.690000)">
                        <mask id="mask-2" fill="white">
                            <use xlink:href="#path-1"></use>
                        </mask>
                        <g id="Clip-132"></g>
                        <path d="M24.69,0.157 C21.507,0.312 18.798,2.755 17.396,5.618 C15.996,8.481 15.659,11.729 15.344,14.902 C15.047,17.891 14.748,20.878 14.453,23.867 C11.638,22.378 7.989,22.393 5.383,24.222 C2.779,26.05 1.532,29.743 2.818,32.654 C3.983,35.293 6.751,36.8 8.64,38.981 C10.528,41.165 11.099,45.221 8.48,46.437 C7.691,46.803 6.788,46.804 5.934,46.974 C1.348,47.888 -0.851,53.79 0.743,58.186 C2.336,62.584 6.53,65.518 10.825,67.375 C13.848,68.682 17.038,69.599 20.293,70.104 L20.288,70.104 C21.674,70.41 23.195,70.549 24.792,70.536 C25.129,70.549 25.466,70.557 25.804,70.561 L25.373,70.525 C33.427,70.28 43.178,66.302 47.128,60.424 C48.736,58.029 49.886,55.104 49.269,52.286 C48.651,49.469 45.73,47.064 42.951,47.839 C41.718,48.182 40.649,48.931 39.475,49.423 C38.805,49.704 37.901,49.98 37.169,49.793 C36.885,49.719 36.614,49.519 36.541,49.233 C36.505,49.094 36.52,48.949 36.535,48.805 C36.62,47.965 36.701,47.127 36.866,46.296 C37.135,44.946 37.565,43.628 38.14,42.379 C39.278,39.903 40.986,37.685 43.13,35.999 C44.887,34.617 46.933,33.558 48.38,31.853 C49.826,30.148 50.49,27.455 49.089,25.711 C47.367,23.568 44.022,24.224 41.364,24.929 C38.706,25.633 35.151,25.801 33.964,23.319 C33.531,22.414 33.562,21.362 33.623,20.36 C33.883,16.168 34.539,11.883 33.452,7.827 C32.394,3.875 29.063,0.149 25.013,0.149 C24.906,0.149 24.798,0.152 24.69,0.157" id="Fill-131" fill="url(#linearGradient-3)" mask="url(#mask-2)"></path>
                    </g>
                    <g id="Group-130" transform="translate(0.000000, 0.690000)">
                        <path d="M119.2456,50.5854 L117.4686,51.4044 C116.0296,52.0674 114.3726,52.0674 112.9336,51.4044 L111.1566,50.5854 C111.0896,50.5544 111.0106,50.5684 110.9586,50.6204 C110.9066,50.6724 110.8926,50.7514 110.9236,50.8174 L111.7436,52.5964 C112.4066,54.0334 112.4066,55.6904 111.7426,57.1304 L110.9236,58.9074 C110.8926,58.9744 110.9066,59.0534 110.9586,59.1054 C111.0106,59.1574 111.0896,59.1714 111.1566,59.1414 L112.9336,58.3214 C114.3726,57.6574 116.0296,57.6574 117.4686,58.3214 L119.2456,59.1414 C119.3126,59.1714 119.3916,59.1574 119.4436,59.1054 C119.4956,59.0534 119.5106,58.9744 119.4786,58.9074 L118.6596,57.1304 C117.9956,55.6904 117.9956,54.0344 118.6596,52.5964 L119.4786,50.8174 C119.5096,50.7514 119.4956,50.6724 119.4436,50.6194 C119.3916,50.5674 119.3126,50.5544 119.2456,50.5854" id="Fill-96" fill="#C4D5E8"></path>
                        <path d="M10.1982,9.6226 L9.0702,12.4036 C8.1562,14.6546 6.2022,16.4306 3.7252,17.2606 L0.6642,18.2856 C0.5492,18.3246 0.4732,18.4246 0.4732,18.5356 C0.4732,18.6466 0.5492,18.7466 0.6642,18.7856 L3.7252,19.8106 C6.2022,20.6416 8.1562,22.4166 9.0702,24.6676 L10.1982,27.4486 C10.2402,27.5536 10.3512,27.6226 10.4732,27.6226 C10.5962,27.6226 10.7052,27.5536 10.7472,27.4486 L11.8772,24.6676 C12.7912,22.4166 14.7432,20.6416 17.2212,19.8116 L20.2822,18.7856 C20.3972,18.7466 20.4732,18.6466 20.4732,18.5356 C20.4732,18.4246 20.3972,18.3246 20.2822,18.2866 L17.2212,17.2606 C14.7432,16.4306 12.7912,14.6546 11.8772,12.4036 L10.7472,9.6226 C10.7052,9.5186 10.5962,9.4486 10.4732,9.4486 C10.3512,9.4486 10.2402,9.5186 10.1982,9.6226" id="Fill-98" fill="#C4D5E8"></path>
                        <path d="M1234.3594,8.6304 L1232.5834,9.4494 C1231.1434,10.1134 1229.4864,10.1134 1228.0474,9.4504 L1226.2704,8.6304 C1226.2034,8.5994 1226.1244,8.6134 1226.0724,8.6654 C1226.0204,8.7184 1226.0054,8.7964 1226.0374,8.8634 L1226.8564,10.6414 C1227.5204,12.0794 1227.5204,13.7364 1226.8564,15.1764 L1226.0374,16.9534 C1226.0054,17.0204 1226.0204,17.0994 1226.0724,17.1514 C1226.1244,17.2024 1226.2034,17.2174 1226.2694,17.1864 L1228.0474,16.3664 C1229.4864,15.7034 1231.1434,15.7024 1232.5824,16.3664 L1234.3594,17.1864 C1234.4264,17.2174 1234.5054,17.2024 1234.5574,17.1514 C1234.6094,17.0994 1234.6244,17.0204 1234.5924,16.9534 L1233.7734,15.1764 C1233.1094,13.7364 1233.1104,12.0794 1233.7734,10.6414 L1234.5924,8.8634 C1234.6244,8.7964 1234.6094,8.7174 1234.5574,8.6654 C1234.5054,8.6134 1234.4264,8.5994 1234.3594,8.6304" id="Fill-100" fill="#C4D5E8"></path>
                        <path d="M1183.8779,19.3403 L1182.7499,22.4003 C1181.8359,24.8783 1179.8829,26.8313 1177.4049,27.7453 L1174.3449,28.8733 C1174.2299,28.9153 1174.1529,29.0263 1174.1529,29.1483 C1174.1529,29.2713 1174.2299,29.3803 1174.3449,29.4233 L1177.4049,30.5523 C1179.8829,31.4653 1181.8359,33.4183 1182.7499,35.8973 L1183.8779,38.9573 C1183.9209,39.0723 1184.0309,39.1493 1184.1529,39.1493 C1184.2749,39.1493 1184.3859,39.0723 1184.4279,38.9573 L1185.5569,35.8973 C1186.4709,33.4183 1188.4239,31.4653 1190.9009,30.5523 L1193.9619,29.4233 C1194.0769,29.3813 1194.1529,29.2713 1194.1529,29.1493 C1194.1529,29.0273 1194.0769,28.9163 1193.9619,28.8733 L1190.9009,27.7453 C1188.4239,26.8313 1186.4709,24.8783 1185.5579,22.4013 L1184.4279,19.3403 C1184.3859,19.2253 1184.2759,19.1483 1184.1529,19.1483 C1184.0309,19.1483 1183.9209,19.2253 1183.8779,19.3403" id="Fill-102" fill="#C4D5E8"></path>
                        <path d="M228.5542,18.771 L230.8292,21.047 C231.1442,21.361 231.1442,21.871 230.8292,22.185 C230.5152,22.5 230.0062,22.5 229.6922,22.185 L227.4162,19.909 C227.1022,19.595 227.1022,19.085 227.4162,18.771 C227.7302,18.457 228.2402,18.457 228.5542,18.771 Z M232.0492,3.622 C231.7342,3.307 231.7342,2.798 232.0492,2.484 C232.3632,2.169 232.8722,2.169 233.1862,2.484 L236.6002,5.898 C236.9142,6.211 236.9142,6.721 236.6002,7.036 C236.2852,7.35 235.7762,7.35 235.4622,7.036 L232.0492,3.622 Z M222.5882,2.208 C222.2742,1.894 222.2742,1.384 222.5882,1.07 C222.9032,0.755 223.4122,0.755 223.7262,1.07 L236.2432,13.586 C236.5572,13.901 236.5572,14.411 236.2432,14.724 C235.9292,15.039 235.4192,15.039 235.1052,14.724 L222.5882,2.208 Z M235.4622,21.518 L224.0832,10.139 C223.7692,9.826 223.7692,9.316 224.0832,9.001 C224.3972,8.687 224.9072,8.687 225.2212,9.001 L236.6002,20.38 C236.9142,20.695 236.9142,21.204 236.6002,21.518 C236.2852,21.833 235.7762,21.833 235.4622,21.518 Z M224.7832,17.277 L214.5422,7.036 C214.2282,6.721 214.2282,6.211 214.5422,5.898 C214.8572,5.583 215.3662,5.583 215.6802,5.898 L225.9212,16.138 C226.2352,16.453 226.2352,16.962 225.9212,17.277 C225.6072,17.59 225.0972,17.59 224.7832,17.277 Z M249.8692,34.788 C245.7912,38.866 239.1552,38.866 235.0762,34.788 L218.0082,17.719 C217.6942,17.405 217.6942,16.896 218.0082,16.582 C218.3232,16.267 218.8322,16.267 219.1462,16.582 L236.2152,33.65 C239.6652,37.1 245.2812,37.1 248.7312,33.65 C252.1812,30.2 252.1822,24.583 248.7312,21.133 L238.4902,10.892 C238.1762,10.578 238.1762,10.069 238.4902,9.754 C238.8042,9.44 239.3142,9.44 239.6282,9.754 L249.8692,19.995 C253.9472,24.073 253.9472,30.709 249.8692,34.788 Z M241.9042,27.96 C241.5902,27.646 241.5902,27.136 241.9042,26.823 C242.2182,26.508 242.7272,26.508 243.0422,26.823 C243.3562,27.136 243.3562,27.646 243.0422,27.96 C242.7272,28.275 242.2182,28.275 241.9042,27.96 Z M238.4502,27.391 C238.4502,26.317 238.8682,25.306 239.6282,24.546 C240.3882,23.787 241.3982,23.369 242.4732,23.369 C243.5482,23.369 244.5582,23.787 245.3182,24.546 C246.8862,26.115 246.8862,28.667 245.3182,30.236 C244.5582,30.996 243.5482,31.415 242.4732,31.415 C241.3982,31.415 240.3882,30.996 239.6282,30.236 C238.8682,29.476 238.4502,28.466 238.4502,27.391 Z M246.4552,31.374 C248.6552,29.174 248.6552,25.608 246.4552,23.409 C245.3562,22.309 243.9142,21.759 242.4732,21.759 C241.0322,21.759 239.5902,22.309 238.4902,23.409 C236.2912,25.608 236.2912,29.174 238.4902,31.374 C239.5902,32.473 241.0322,33.024 242.4732,33.024 C243.9142,33.024 245.3562,32.473 246.4552,31.374 Z" id="Fill-104" fill="#8D9EFF"></path>
                        <path d="M149.918,65.3433 C142.886,72.9203 136.345,81.1623 132.319,90.6833 C128.157,100.5253 126.846,111.5523 128.584,122.0953 C129.2,125.8323 130.325,129.0343 133.553,131.3003 C137.536,134.0953 142.973,135.5343 147.691,136.4913 C152.569,137.4803 157.797,137.6083 162.376,135.4003 C169.828,131.8083 173.492,122.8933 173.295,114.6233 C173.098,106.3553 169.781,98.5203 166.518,90.9203 C162.477,81.5083 158.218,71.7863 150.616,64.9223" id="Fill-106" fill="#5AD4FF"></path>
                        <path d="M150.5693,107.0415 L150.5693,159.0575" id="Stroke-108" stroke="#6559D8" stroke-width="3" stroke-linecap="round"></path>
                        <path d="M143.0854,123.439 L150.5034,130.857" id="Stroke-110" stroke="#6559D8" stroke-width="3" stroke-linecap="round"></path>
                        <path d="M157.9868,117.3208 L150.5698,124.7378" id="Stroke-112" stroke="#6559D8" stroke-width="3" stroke-linecap="round"></path>
                        <path d="M39.1777,120.27 C35.4207,120.228 31.6727,119.431 28.2227,117.94 C25.0837,116.582 22.0167,114.436 20.8507,111.22 C19.6857,108.004 21.2927,103.689 24.6477,103.021 C25.2717,102.896 25.9317,102.895 26.5097,102.627 C28.4237,101.738 28.0067,98.772 26.6257,97.176 C25.2447,95.581 23.2207,94.479 22.3687,92.547 C21.4287,90.418 22.3397,87.718 24.2447,86.381 C26.1507,85.044 28.8197,85.033 30.8767,86.122 C31.0937,83.937 31.3117,81.751 31.5287,79.566 C31.7597,77.247 32.0057,74.871 33.0307,72.777 C34.0537,70.683 36.0357,68.896 38.3637,68.783 C41.4307,68.633 43.9767,71.425 44.7717,74.392 C45.5667,77.359 45.0867,80.493 44.8967,83.558 C44.8517,84.291 44.8297,85.059 45.1467,85.722 C46.0137,87.536 48.6147,87.415 50.5577,86.899 C52.5007,86.383 54.9477,85.904 56.2067,87.47 C57.2307,88.746 56.7457,90.715 55.6887,91.962 C54.6307,93.209 53.1337,93.984 51.8487,94.995 C50.2807,96.228 49.0317,97.85 48.1987,99.66 C47.7787,100.574 47.4637,101.538 47.2677,102.525 C47.1477,103.132 47.0887,103.745 47.0257,104.36 C47.0147,104.464 47.0047,104.571 47.0307,104.672 C47.0827,104.881 47.2817,105.029 47.4907,105.082 C48.0247,105.219 48.6857,105.017 49.1767,104.811 C50.0337,104.451 50.8157,103.904 51.7187,103.653 C53.7497,103.087 55.8867,104.844 56.3377,106.905 C56.7887,108.965 55.9497,111.106 54.7737,112.856 C51.2357,118.121 41.3377,121.301 35.1447,119.935" id="Fill-114" fill="#6559D8"></path>
                        <path d="M36.4263,96.2954 L36.4263,133.8634" id="Stroke-116" stroke="#8D9EFF" stroke-width="3" stroke-linecap="round"></path>
                        <path d="M30.0791,108.8442 L36.3711,115.1352" id="Stroke-118" stroke="#8D9EFF" stroke-width="3" stroke-linecap="round"></path>
                        <path d="M42.7178,103.6538 L36.4258,109.9458" id="Stroke-120" stroke="#8D9EFF" stroke-width="3" stroke-linecap="round"></path>
                        <path d="M1246.3799,75.1646 C1241.2639,80.6766 1236.5059,86.6736 1233.5759,93.6006 C1230.5489,100.7606 1229.5949,108.7826 1230.8589,116.4526 C1231.3079,119.1716 1232.1259,121.5016 1234.4749,123.1496 C1237.3719,125.1836 1241.3269,126.2296 1244.7599,126.9266 C1248.3089,127.6456 1252.1119,127.7376 1255.4439,126.1326 C1260.8639,123.5186 1263.5299,117.0326 1263.3869,111.0176 C1263.2439,105.0016 1260.8309,99.3016 1258.4569,93.7716 C1255.5169,86.9246 1252.4189,79.8516 1246.8879,74.8576" id="Fill-122" fill="#8D9EFF"></path>
                        <path d="M1246.8535,105.5005 L1246.8535,143.3435" id="Stroke-124" stroke="#6559D8" stroke-width="3" stroke-linecap="round"></path>
                        <path d="M1241.4092,117.4302 L1246.8052,122.8262" id="Stroke-126" stroke="#6559D8" stroke-width="3" stroke-linecap="round"></path>
                        <path d="M1252.25,112.979 L1246.854,118.375" id="Stroke-128" stroke="#6559D8" stroke-width="3" stroke-linecap="round"></path>
                    </g>
                </g>
                <g id="Group-142" transform="translate(592.000000, 0.690000)">
                    <path d="M527.041,109.7778 L527.041,161.1498" id="Stroke-134" stroke="#C4D5E8" stroke-width="3" stroke-linecap="round"></path>
                    <path d="M518.3613,126.937 L526.9653,135.541" id="Stroke-136" stroke="#C4D5E8" stroke-width="3" stroke-linecap="round"></path>
                    <path d="M535.6436,119.8403 L527.0406,128.4443" id="Stroke-138" stroke="#C4D5E8" stroke-width="3" stroke-linecap="round"></path>
                    <path d="M25.9155,37.6558 L25.9155,52.3178 L18.9355,52.3178 C18.5615,52.3178 18.2595,52.0148 18.2595,51.6418 L18.2595,45.5928 C18.2595,45.4128 18.3295,45.2428 18.4575,45.1148 L25.9155,37.6558 Z M45.5795,52.3178 L45.5795,37.6558 L53.0375,45.1148 C53.1665,45.2428 53.2365,45.4128 53.2365,45.5928 L53.2365,51.6418 C53.2365,52.0148 52.9345,52.3178 52.5615,52.3178 L45.5795,52.3178 Z M31.4125,60.7238 L32.1885,56.8458 C33.5825,57.1288 34.7775,57.2708 35.7475,57.2708 C36.7185,57.2708 37.9135,57.1288 39.3065,56.8458 L40.0825,60.7238 L31.4125,60.7238 Z M35.7475,39.7088 C34.9615,39.7088 34.3215,40.3478 34.3215,41.1348 L34.3215,54.2888 C32.2155,54.0238 29.7935,53.3248 28.7675,53.0088 L28.7675,23.2708 C28.7675,20.3688 33.5565,15.0898 35.7475,13.4428 C37.9385,15.0898 42.7275,20.3688 42.7275,23.2708 L42.7275,53.0098 C41.7015,53.3248 39.2795,54.0248 37.1735,54.2888 L37.1735,41.1348 C37.1735,40.3478 36.5335,39.7088 35.7475,39.7088 Z M3.1625,36.3508 C3.1625,18.4298 17.7415,3.8508 35.6625,3.8508 C53.5835,3.8508 68.1625,18.4298 68.1625,36.3508 C68.1625,52.5578 56.2375,66.0298 40.7005,68.4588 C40.6295,66.3578 40.8375,64.5368 40.9935,63.5248 C41.5625,63.4198 42.0805,63.1258 42.4555,62.6698 C42.9275,62.0928 43.1145,61.3438 42.9695,60.6138 L42.0805,56.1718 C43.6965,55.7198 44.9775,55.2728 45.2695,55.1698 L52.5615,55.1698 C54.5065,55.1698 56.0885,53.5878 56.0885,51.6418 L56.0885,45.5928 C56.0885,44.6498 55.7215,43.7638 55.0555,43.0968 L45.5795,33.6238 L45.5795,23.2708 C45.5795,18.2928 37.5025,10.2868 35.7475,10.2868 C33.9925,10.2868 25.9155,18.2928 25.9155,23.2708 L25.9155,33.6238 L16.4395,43.0978 C15.7735,43.7648 15.4075,44.6508 15.4075,45.5928 L15.4075,51.6418 C15.4075,53.5878 16.9895,55.1698 18.9355,55.1698 L26.2255,55.1698 C26.5185,55.2728 27.7995,55.7198 29.4155,56.1718 L28.5265,60.6138 C28.3815,61.3438 28.5685,62.0938 29.0405,62.6698 C29.3805,63.0838 29.8385,63.3648 30.3445,63.4928 C30.5025,64.4988 30.7175,66.3388 30.6455,68.4628 C15.0985,66.0438 3.1625,52.5658 3.1625,36.3508 Z M56.3755,79.3218 C53.3315,74.0768 46.5555,74.3798 42.3565,75.5588 C41.6765,74.2648 41.2575,72.8508 41.0065,71.4478 C58.0555,68.8628 71.1625,54.1098 71.1625,36.3508 C71.1625,16.7758 55.2375,0.8508 35.6625,0.8508 C16.0875,0.8508 0.1625,16.7758 0.1625,36.3508 C0.1625,54.1168 13.2795,68.8738 30.3375,71.4508 C30.0855,72.8508 29.6655,74.2638 28.9835,75.5588 C24.7855,74.3808 18.0075,74.0768 14.9655,79.3218 C11.4215,77.8208 5.3535,77.0908 0.5845,82.3058 C0.0255,82.9178 0.0685,83.8658 0.6805,84.4258 C0.9675,84.6878 1.3295,84.8178 1.6915,84.8178 C2.0985,84.8178 2.5035,84.6538 2.7995,84.3298 C8.0155,78.6218 14.6085,82.4688 14.8835,82.6328 C15.2665,82.8648 15.7315,82.9148 16.1525,82.7688 C16.5745,82.6228 16.9105,82.2968 17.0665,81.8778 C19.5065,75.3708 28.7595,78.6198 29.1495,78.7608 C29.7965,78.9928 30.5265,78.7588 30.9105,78.1828 C31.5095,77.2848 31.9765,76.3288 32.3535,75.3508 C33.7145,71.8218 33.7805,67.9998 33.5775,65.3508 C33.5255,64.6708 33.4585,64.0738 33.3895,63.5758 L37.9505,63.5758 C37.8815,64.0738 37.8145,64.6708 37.7625,65.3508 C37.5605,67.9998 37.6255,71.8218 38.9875,75.3508 C39.3645,76.3288 39.8315,77.2848 40.4305,78.1828 C40.8125,78.7588 41.5425,78.9978 42.1885,78.7608 C42.5815,78.6198 51.8345,75.3728 54.2735,81.8778 C54.4305,82.2948 54.7655,82.6188 55.1865,82.7658 C55.6045,82.9128 56.0705,82.8658 56.4535,82.6348 C56.7295,82.4678 63.3235,78.6238 68.5415,84.3298 C68.8375,84.6538 69.2425,84.8178 69.6485,84.8178 C70.0105,84.8178 70.3735,84.6878 70.6605,84.4258 C71.2715,83.8658 71.3145,82.9178 70.7565,82.3058 C65.9875,77.0918 59.9215,77.8238 56.3755,79.3218 Z" id="Fill-140" fill="#6775EE"></path>
                </g>
            </g>
        </g>
    </g>
</svg>