<?xml version="1.0" encoding="UTF-8"?>
<svg width="61px" height="58px" viewBox="0 0 61 58" version="1.1" xmlns="http://www.w3.org/2000/svg" xmlns:xlink="http://www.w3.org/1999/xlink">
    <!-- Generator: Sketch 50.2 (55047) - http://www.bohemiancoding.com/sketch -->
    <title>Fill 88</title>
    <desc>Created with Sketch.</desc>
    <defs></defs>
    <g id="Page-1" stroke="none" stroke-width="1" fill="none" fill-rule="evenodd">
        <g id="stratobooster-website-final2" transform="translate(-314.000000, -4502.000000)" fill="#FFFFFF">
            <path d="M372,4532.0477 L362,4532.0477 C360.619,4532.0477 359.5,4533.1667 359.5,4534.5477 L359.5,4542.0477 C359.5,4543.4287 360.619,4544.5477 362,4544.5477 L372,4544.5477 L372,4555.7977 C372,4556.4877 371.44,4557.0477 370.75,4557.0477 L318.25,4557.0477 C317.56,4557.0477 317,4556.4877 317,4555.7977 L317,4516.9077 C318.589,4518.5327 320.798,4519.5477 323.25,4519.5477 L369.5,4519.5477 L370.75,4519.5477 C371.44,4519.5477 372,4520.1077 372,4520.7977 L372,4532.0477 Z M362,4542.0477 L372,4542.0477 L372,4534.5477 L362,4534.5477 L362,4542.0477 Z M367,4512.0477 L367,4517.0477 L334.5,4517.0477 L327,4517.0477 C325.622,4517.0477 324.5,4515.9267 324.5,4514.5477 C324.5,4513.1687 325.622,4512.0477 327,4512.0477 L367,4512.0477 Z M323.25,4504.5477 L367,4504.5477 L367,4509.5477 L327,4509.5477 C324.239,4509.5477 322,4511.7857 322,4514.5477 C322,4515.4387 322.252,4516.2637 322.661,4516.9877 C319.495,4516.6867 317,4514.0417 317,4510.7977 C317,4507.3517 319.804,4504.5477 323.25,4504.5477 Z M370.75,4517.0477 L369.5,4517.0477 L369.5,4504.5477 C369.5,4503.1667 368.381,4502.0477 367,4502.0477 L323.25,4502.0477 C318.417,4502.0477 314.5,4505.9647 314.5,4510.7977 L314.5,4555.7977 C314.5,4557.8687 316.179,4559.5477 318.25,4559.5477 L370.75,4559.5477 C372.821,4559.5477 374.5,4557.8687 374.5,4555.7977 L374.5,4520.7977 C374.5,4518.7267 372.821,4517.0477 370.75,4517.0477 Z" id="Fill-88"></path>
        </g>
    </g>
</svg>