<?xml version="1.0" encoding="UTF-8"?>
<svg width="63px" height="71px" viewBox="0 0 63 71" version="1.1" xmlns="http://www.w3.org/2000/svg" xmlns:xlink="http://www.w3.org/1999/xlink">
    <!-- Generator: Sketch 50.2 (55047) - http://www.bohemiancoding.com/sketch -->
    <title>Fill 86</title>
    <desc>Created with Sketch.</desc>
    <defs></defs>
    <g id="Page-1" stroke="none" stroke-width="1" fill="none" fill-rule="evenodd">
        <g id="stratobooster-website-final2" transform="translate(-695.000000, -4494.000000)" fill="#FFFFFF">
            <path d="M707.5415,4509.3143 C707.5415,4507.7053 708.8505,4506.3973 710.4585,4506.3973 C712.0665,4506.3973 713.3745,4507.7053 713.3745,4509.3143 C713.3745,4510.9223 712.0665,4512.2303 710.4585,4512.2303 C708.8505,4512.2303 707.5415,4510.9223 707.5415,4509.3143 M716.2915,4509.3143 C716.2915,4506.0923 713.6795,4503.4803 710.4585,4503.4803 C707.2365,4503.4803 704.6245,4506.0923 704.6245,4509.3143 C704.6245,4512.5353 707.2365,4515.1473 710.4585,4515.1473 C713.6795,4515.1473 716.2915,4512.5353 716.2915,4509.3143 M710.4585,4497.6473 C716.8915,4497.6473 722.1245,4502.8803 722.1245,4509.3143 C722.1245,4515.1133 713.9695,4527.7453 710.4585,4531.7973 C706.9465,4527.7453 698.7915,4515.1133 698.7915,4509.3143 C698.7915,4502.8803 704.0255,4497.6473 710.4585,4497.6473 M710.4585,4535.5643 C712.4025,4535.5643 725.0415,4517.3683 725.0415,4509.3143 C725.0415,4501.2593 718.5125,4494.7303 710.4585,4494.7303 C702.4045,4494.7303 695.8745,4501.2593 695.8745,4509.3143 C695.8745,4517.3683 708.5135,4535.5643 710.4585,4535.5643 M739.6245,4520.9803 C739.6245,4519.3723 740.9335,4518.0643 742.5415,4518.0643 C744.1495,4518.0643 745.4585,4519.3723 745.4585,4520.9803 C745.4585,4522.5883 744.1495,4523.8973 742.5415,4523.8973 C740.9335,4523.8973 739.6245,4522.5883 739.6245,4520.9803 M748.3745,4520.9803 C748.3745,4517.7583 745.7635,4515.1473 742.5415,4515.1473 C739.3195,4515.1473 736.7085,4517.7583 736.7085,4520.9803 C736.7085,4524.2023 739.3195,4526.8143 742.5415,4526.8143 C745.7635,4526.8143 748.3745,4524.2023 748.3745,4520.9803 M742.5415,4509.3143 C748.9745,4509.3143 754.2085,4514.5473 754.2085,4520.9803 C754.2085,4526.7803 746.0535,4539.4123 742.5415,4543.4643 C739.0305,4539.4123 730.8745,4526.7803 730.8745,4520.9803 C730.8745,4514.5473 736.1085,4509.3143 742.5415,4509.3143 M742.5415,4547.2303 C744.4865,4547.2303 757.1245,4529.0353 757.1245,4520.9803 C757.1245,4512.9263 750.5955,4506.3973 742.5415,4506.3973 C734.4875,4506.3973 727.9585,4512.9263 727.9585,4520.9803 C727.9585,4529.0353 740.5975,4547.2303 742.5415,4547.2303 M742.5415,4561.8143 C740.9335,4561.8143 739.6245,4560.5053 739.6245,4558.8973 C739.6245,4557.2893 740.9335,4555.9803 742.5415,4555.9803 C744.1495,4555.9803 745.4585,4557.2893 745.4585,4558.8973 C745.4585,4560.5053 744.1495,4561.8143 742.5415,4561.8143 M710.4585,4550.1473 C708.8505,4550.1473 707.5415,4548.8383 707.5415,4547.2303 C707.5415,4545.6223 708.8505,4544.3143 710.4585,4544.3143 C712.0665,4544.3143 713.3745,4545.6223 713.3745,4547.2303 C713.3745,4548.8383 712.0665,4550.1473 710.4585,4550.1473 M742.5415,4553.0643 C740.5455,4553.0643 738.7875,4554.0693 737.7355,4555.5983 L716.2355,4547.7803 C716.2535,4547.5963 716.2915,4547.4183 716.2915,4547.2303 C716.2915,4544.0083 713.6795,4541.3973 710.4585,4541.3973 C707.2365,4541.3973 704.6245,4544.0083 704.6245,4547.2303 C704.6245,4550.4523 707.2365,4553.0643 710.4585,4553.0643 C712.4545,4553.0643 714.2125,4552.0583 715.2645,4550.5293 L736.7635,4558.3473 C736.7465,4558.5313 736.7085,4558.7093 736.7085,4558.8973 C736.7085,4562.1193 739.3195,4564.7303 742.5415,4564.7303 C745.7635,4564.7303 748.3745,4562.1193 748.3745,4558.8973 C748.3745,4555.6753 745.7635,4553.0643 742.5415,4553.0643" id="Fill-86"></path>
        </g>
    </g>
</svg>