<?xml version="1.0" encoding="UTF-8"?>
<svg width="57px" height="62px" viewBox="0 0 57 62" version="1.1" xmlns="http://www.w3.org/2000/svg" xmlns:xlink="http://www.w3.org/1999/xlink">
    <!-- Generator: Sketch 50.2 (55047) - http://www.bohemiancoding.com/sketch -->
    <title>Fill 72</title>
    <desc>Created with Sketch.</desc>
    <defs></defs>
    <g id="Page-1" stroke="none" stroke-width="1" fill="none" fill-rule="evenodd">
        <g id="stratobooster-website-final2" transform="translate(-1079.000000, -4753.000000)" fill="#FFFFFF">
            <path d="M1098.9785,4808.2938 C1098.9785,4807.6208 1099.5235,4807.0768 1100.1955,4807.0768 L1114.8045,4807.0768 C1115.4765,4807.0768 1116.0215,4807.6208 1116.0215,4808.2938 C1116.0215,4808.9668 1115.4765,4809.5118 1114.8045,4809.5118 L1100.1955,4809.5118 C1099.5235,4809.5118 1098.9785,4808.9668 1098.9785,4808.2938 Z M1133.0655,4768.1198 C1133.0655,4772.6498 1129.9575,4776.4678 1125.7605,4777.5518 L1125.7605,4776.6428 L1125.7605,4763.2508 L1133.0655,4763.2508 L1133.0655,4768.1198 Z M1123.3265,4760.8158 L1123.3265,4776.6428 C1123.3265,4785.3678 1116.2265,4792.4678 1107.4995,4792.4678 C1098.7735,4792.4678 1091.6735,4785.3678 1091.6735,4776.6428 L1091.6735,4760.8158 L1091.6735,4755.9458 L1123.3265,4755.9458 L1123.3265,4760.8158 Z M1102.9305,4802.2068 L1104.6095,4794.6518 C1105.5525,4794.8028 1106.5135,4794.9028 1107.4995,4794.9028 C1108.4865,4794.9028 1109.4465,4794.8028 1110.3895,4794.6528 L1112.0685,4802.2068 L1102.9305,4802.2068 Z M1117.9665,4804.6428 L1120.8885,4811.9458 L1094.1115,4811.9458 L1097.0335,4804.6428 L1117.9665,4804.6428 Z M1089.2395,4776.6428 L1089.2395,4777.5518 C1085.0425,4776.4678 1081.9345,4772.6498 1081.9345,4768.1198 L1081.9345,4763.2508 L1089.2395,4763.2508 L1089.2395,4776.6428 Z M1134.2825,4760.8158 L1125.7605,4760.8158 L1125.7605,4754.7298 C1125.7605,4754.0568 1125.2155,4753.5118 1124.5435,4753.5118 L1090.4565,4753.5118 C1089.7845,4753.5118 1089.2395,4754.0568 1089.2395,4754.7298 L1089.2395,4760.8158 L1080.7175,4760.8158 C1080.0445,4760.8158 1079.4995,4761.3598 1079.4995,4762.0328 L1079.4995,4768.1198 C1079.4995,4774.1238 1083.8555,4779.0838 1089.5735,4780.0828 C1090.8525,4786.7848 1095.7885,4792.1848 1102.2315,4794.1228 L1100.4355,4802.2068 L1097.0335,4802.2068 C1096.0375,4802.2068 1095.1415,4802.8138 1094.7725,4803.7368 L1091.8505,4811.0418 C1091.2105,4812.6418 1092.3885,4814.3808 1094.1115,4814.3808 L1120.8885,4814.3808 C1122.6115,4814.3808 1123.7895,4812.6418 1123.1495,4811.0418 L1120.2275,4803.7368 C1119.8575,4802.8138 1118.9625,4802.2068 1117.9665,4802.2068 L1114.5635,4802.2068 L1112.7665,4794.1238 C1119.2105,4792.1858 1124.1475,4786.7848 1125.4265,4780.0828 C1131.1445,4779.0838 1135.4995,4774.1238 1135.4995,4768.1198 L1135.4995,4762.0328 C1135.4995,4761.3598 1134.9555,4760.8158 1134.2825,4760.8158 Z" id="Fill-72"></path>
        </g>
    </g>
</svg>