<?xml version="1.0" encoding="UTF-8"?>
<svg width="66px" height="66px" viewBox="0 0 66 66" version="1.1" xmlns="http://www.w3.org/2000/svg" xmlns:xlink="http://www.w3.org/1999/xlink">
    <!-- Generator: Sketch 50.2 (55047) - http://www.bohemiancoding.com/sketch -->
    <title>Fill 82</title>
    <desc>Created with Sketch.</desc>
    <defs></defs>
    <g id="Page-1" stroke="none" stroke-width="1" fill="none" fill-rule="evenodd">
        <g id="stratobooster-website-final2" transform="translate(-317.000000, -4750.000000)" fill="#FFFFFF">
            <path d="M352.7085,4809.1658 C352.7085,4805.3568 348.6465,4799.6868 348.6465,4799.6868 C348.6465,4799.6868 344.5835,4805.6958 344.5835,4809.1658 C344.5835,4811.4088 346.4025,4813.2278 348.6465,4813.2278 C350.8895,4813.2278 352.7085,4811.4088 352.7085,4809.1658 Z M350.8475,4798.1088 C351.3145,4798.7628 355.4165,4804.6178 355.4165,4809.1658 C355.4165,4812.8988 352.3795,4815.9368 348.6465,4815.9368 C344.9125,4815.9368 341.8755,4812.8988 341.8755,4809.1658 C341.8755,4805.0728 345.6465,4799.2878 346.4015,4798.1698 L348.5815,4794.9458 L350.8475,4798.1088 Z M370.7375,4773.9578 C370.7375,4767.2368 365.2705,4761.7698 358.5495,4761.7698 C354.2295,4761.7698 350.4585,4764.0488 348.2985,4767.4508 C350.8925,4769.0218 353.1595,4771.1448 354.8535,4773.7548 C356.7675,4772.9908 358.7745,4772.6028 360.8335,4772.6028 C364.4765,4772.6028 367.8325,4773.8228 370.5445,4775.8548 C370.6575,4775.2368 370.7375,4774.6078 370.7375,4773.9578 Z M372.8455,4777.9478 C375.4685,4780.8348 377.0835,4784.6538 377.0835,4788.8538 C377.0835,4796.0928 372.2225,4802.5228 365.2635,4804.4908 C365.1405,4804.5258 365.0165,4804.5428 364.8935,4804.5428 C364.3035,4804.5428 363.7595,4804.1538 363.5915,4803.5578 C363.3885,4802.8368 363.8065,4802.0898 364.5255,4801.8858 C370.3245,4800.2458 374.3755,4794.8868 374.3755,4788.8538 C374.3755,4781.3868 368.2995,4775.3118 360.8335,4775.3118 C358.7785,4775.3118 356.7845,4775.7758 354.9075,4776.6918 C354.2665,4777.0098 353.4855,4776.7678 353.1355,4776.1428 C350.0095,4770.6178 344.1375,4767.1868 337.8125,4767.1868 C328.1055,4767.1868 320.2085,4775.0838 320.2085,4784.7908 C320.2085,4792.5238 325.3805,4799.4648 332.7845,4801.6678 C333.5015,4801.8808 333.9105,4802.6348 333.6955,4803.3518 C333.4845,4804.0678 332.7355,4804.4768 332.0125,4804.2628 C323.4685,4801.7208 317.5005,4793.7128 317.5005,4784.7908 C317.5005,4773.5898 326.6115,4764.4778 337.8125,4764.4778 C340.6295,4764.4778 343.3555,4765.0958 345.8645,4766.1868 C348.4825,4761.9178 353.1755,4759.0618 358.5495,4759.0618 C366.7765,4759.0618 373.4455,4765.7298 373.4455,4773.9578 C373.4455,4775.3478 373.2055,4776.6728 372.8455,4777.9478 Z M372.9135,4761.5098 L374.8285,4759.5948 C375.3565,4759.0648 375.3565,4758.2078 374.8285,4757.6788 C374.2985,4757.1498 373.4415,4757.1498 372.9135,4757.6788 L370.9985,4759.5948 C370.4695,4760.1228 370.4695,4760.9798 370.9985,4761.5098 C371.5265,4762.0378 372.3845,4762.0378 372.9135,4761.5098 Z M344.1865,4761.5098 C344.7155,4762.0378 345.5735,4762.0378 346.1025,4761.5098 C346.6305,4760.9798 346.6305,4760.1228 346.1025,4759.5948 L344.1865,4757.6788 C343.6575,4757.1498 342.8005,4757.1498 342.2715,4757.6788 C341.7425,4758.2078 341.7425,4759.0648 342.2715,4759.5948 L344.1865,4761.5098 Z M381.1455,4772.6028 L378.4375,4772.6028 C377.6895,4772.6028 377.0835,4773.2098 377.0835,4773.9578 C377.0835,4774.7048 377.6895,4775.3118 378.4375,4775.3118 L381.1455,4775.3118 C381.8935,4775.3118 382.5005,4774.7048 382.5005,4773.9578 C382.5005,4773.2098 381.8935,4772.6028 381.1455,4772.6028 Z M357.1955,4754.9988 L357.1955,4752.2908 C357.1955,4751.5428 357.8015,4750.9368 358.5495,4750.9368 C359.2975,4750.9368 359.9035,4751.5428 359.9035,4752.2908 L359.9035,4754.9988 C359.9035,4755.7468 359.2975,4756.3528 358.5495,4756.3528 C357.8015,4756.3528 357.1955,4755.7468 357.1955,4754.9988 Z" id="Fill-82"></path>
        </g>
    </g>
</svg>