<?xml version="1.0" encoding="UTF-8"?>
<svg width="63px" height="75px" viewBox="0 0 63 75" version="1.1" xmlns="http://www.w3.org/2000/svg" xmlns:xlink="http://www.w3.org/1999/xlink">
    <!-- Generator: Sketch 50.2 (55047) - http://www.bohemiancoding.com/sketch -->
    <title>Fill 84</title>
    <desc>Created with Sketch.</desc>
    <defs></defs>
    <g id="Page-1" stroke="none" stroke-width="1" fill="none" fill-rule="evenodd">
        <g id="stratobooster-website-final2" transform="translate(-1076.000000, -4493.000000)" fill="#FFFFFF">
            <path d="M1098.6162,4526.2645 L1098.6162,4539.1405 L1092.4862,4539.1405 C1092.1582,4539.1405 1091.8922,4538.8745 1091.8922,4538.5475 L1091.8922,4533.2345 C1091.8922,4533.0765 1091.9542,4532.9275 1092.0672,4532.8155 L1098.6162,4526.2645 Z M1115.8862,4539.1405 L1115.8862,4526.2645 L1122.4352,4532.8155 C1122.5492,4532.9275 1122.6102,4533.0765 1122.6102,4533.2345 L1122.6102,4538.5475 C1122.6102,4538.8745 1122.3452,4539.1405 1122.0172,4539.1405 L1115.8862,4539.1405 Z M1103.4442,4546.5235 L1104.1262,4543.1185 C1105.3492,4543.3655 1106.3992,4543.4915 1107.2512,4543.4915 C1108.1032,4543.4915 1109.1532,4543.3655 1110.3772,4543.1185 L1111.0582,4546.5235 L1103.4442,4546.5235 Z M1107.2512,4528.0675 C1106.5602,4528.0675 1105.9992,4528.6285 1105.9992,4529.3195 L1105.9992,4540.8715 C1104.1492,4540.6395 1102.0222,4540.0255 1101.1212,4539.7465 L1101.1212,4513.6315 C1101.1212,4511.0825 1105.3272,4506.4465 1107.2512,4504.9995 C1109.1762,4506.4465 1113.3822,4511.0825 1113.3822,4513.6315 L1113.3822,4539.7475 C1112.4802,4540.0255 1110.3532,4540.6395 1108.5042,4540.8715 L1108.5042,4529.3195 C1108.5042,4528.6285 1107.9412,4528.0675 1107.2512,4528.0675 Z M1078.6352,4525.1185 C1078.6352,4509.3795 1091.4382,4496.5765 1107.1772,4496.5765 C1122.9152,4496.5765 1135.7192,4509.3795 1135.7192,4525.1185 C1135.7192,4539.3525 1125.2462,4551.1835 1111.6012,4553.3165 C1111.5392,4551.4715 1111.7212,4549.8715 1111.8582,4548.9835 C1112.3582,4548.8905 1112.8132,4548.6325 1113.1422,4548.2315 C1113.5562,4547.7255 1113.7212,4547.0685 1113.5942,4546.4265 L1112.8132,4542.5255 C1114.2322,4542.1285 1115.3562,4541.7365 1115.6142,4541.6455 L1122.0172,4541.6455 C1123.7252,4541.6455 1125.1152,4540.2555 1125.1152,4538.5475 L1125.1152,4533.2345 C1125.1152,4532.4075 1124.7922,4531.6285 1124.2082,4531.0425 L1115.8862,4522.7235 L1115.8862,4513.6315 C1115.8862,4509.2595 1108.7922,4502.2285 1107.2512,4502.2285 C1105.7102,4502.2285 1098.6162,4509.2595 1098.6162,4513.6315 L1098.6162,4522.7235 L1090.2952,4531.0435 C1089.7102,4531.6295 1089.3882,4532.4075 1089.3882,4533.2345 L1089.3882,4538.5475 C1089.3882,4540.2555 1090.7782,4541.6455 1092.4862,4541.6455 L1098.8882,4541.6455 C1099.1452,4541.7365 1100.2712,4542.1285 1101.6902,4542.5255 L1100.9102,4546.4265 C1100.7822,4547.0685 1100.9472,4547.7265 1101.3612,4548.2315 C1101.6592,4548.5955 1102.0612,4548.8425 1102.5072,4548.9545 C1102.6452,4549.8375 1102.8342,4551.4535 1102.7702,4553.3195 C1089.1172,4551.1955 1078.6352,4539.3585 1078.6352,4525.1185 Z M1125.3672,4562.8565 C1122.6932,4558.2495 1116.7432,4558.5155 1113.0552,4559.5515 C1112.4592,4558.4155 1112.0902,4557.1735 1111.8702,4555.9415 C1126.8432,4553.6715 1138.3532,4540.7145 1138.3532,4525.1185 C1138.3532,4507.9275 1124.3682,4493.9425 1107.1772,4493.9425 C1089.9852,4493.9425 1076.0002,4507.9275 1076.0002,4525.1185 C1076.0002,4540.7205 1087.5192,4553.6805 1102.5012,4555.9435 C1102.2792,4557.1735 1101.9102,4558.4145 1101.3112,4559.5515 C1097.6242,4558.5165 1091.6722,4558.2495 1089.0002,4562.8565 C1085.8872,4561.5375 1080.5582,4560.8965 1076.3702,4565.4775 C1075.8802,4566.0135 1075.9182,4566.8465 1076.4542,4567.3375 C1076.7072,4567.5695 1077.0242,4567.6825 1077.3432,4567.6825 C1077.7002,4567.6825 1078.0552,4567.5385 1078.3152,4567.2535 C1082.8962,4562.2415 1088.6862,4565.6185 1088.9282,4565.7635 C1089.2632,4565.9675 1089.6732,4566.0115 1090.0432,4565.8835 C1090.4132,4565.7545 1090.7082,4565.4685 1090.8452,4565.1005 C1092.9882,4559.3865 1101.1142,4562.2395 1101.4572,4562.3645 C1102.0242,4562.5675 1102.6662,4562.3615 1103.0042,4561.8565 C1103.5292,4561.0675 1103.9392,4560.2275 1104.2702,4559.3685 C1105.4662,4556.2695 1105.5242,4552.9125 1105.3452,4550.5865 C1105.3002,4549.9895 1105.2412,4549.4655 1105.1802,4549.0275 L1109.1862,4549.0275 C1109.1262,4549.4655 1109.0672,4549.9895 1109.0212,4550.5865 C1108.8432,4552.9125 1108.9002,4556.2695 1110.0962,4559.3685 C1110.4282,4560.2275 1110.8382,4561.0675 1111.3632,4561.8565 C1111.7002,4562.3615 1112.3412,4562.5715 1112.9082,4562.3645 C1113.2532,4562.2395 1121.3792,4559.3875 1123.5212,4565.1005 C1123.6582,4565.4665 1123.9532,4565.7515 1124.3222,4565.8805 C1124.6902,4566.0095 1125.0992,4565.9685 1125.4352,4565.7665 C1125.6782,4565.6185 1131.4692,4562.2435 1136.0522,4567.2535 C1136.3112,4567.5385 1136.6672,4567.6825 1137.0242,4567.6825 C1137.3422,4567.6825 1137.6602,4567.5695 1137.9122,4567.3375 C1138.4492,4566.8465 1138.4872,4566.0135 1137.9962,4565.4775 C1133.8082,4560.8975 1128.4812,4561.5405 1125.3672,4562.8565 Z" id="Fill-84"></path>
        </g>
    </g>
</svg>